<?xml version="1.0" encoding="utf-8"?>
<!-- Generator: Adobe Illustrator 22.0.1, SVG Export Plug-In . SVG Version: 6.00 Build 0)  -->
<svg version="1.1" id="Layer_1" xmlns="http://www.w3.org/2000/svg" xmlns:xlink="http://www.w3.org/1999/xlink" x="0px" y="0px"
	 viewBox="0 0 431.3 504.2" style="enable-background:new 0 0 431.3 504.2;" xml:space="preserve">
<style type="text/css">
	.st0{fill:#606060;}
	.st1{fill:#FFFFFF;}
	.st2{fill:#F37B35;}
	.st3{fill:#FFD474;}
	.st4{fill:#FFBDA1;}
	.st5{fill:#ED6732;}
	.st6{fill:#FAAAAB;}
	.st7{fill:#1E1A1E;}
	.st8{fill:#EF4231;}
	.st9{fill:#FC8B4C;}
	.st10{clip-path:url(#SVGID_2_);}
	.st11{fill:#F27424;}
</style>
<g>
	<path class="st0" d="M213.5,13.5H42c-16.1,0-29.2,13.1-29.2,29.2v368.7c0,16.1,13.1,29.2,29.2,29.2h171.5
		c16.1,0,29.2-13.1,29.2-29.2V42.8C242.7,26.6,229.7,13.5,213.5,13.5z"/>
	<path class="st1" d="M122.3,424.3c-9.8,0-17.7-8-17.7-17.7c0-9.8,8-17.7,17.7-17.7s17.7,8,17.7,17.7
		C140,416.3,132.1,424.3,122.3,424.3z"/>
	<rect x="29.7" y="51" class="st1" width="193.6" height="321.7"/>
	<rect x="60.7" y="82.2" class="st2" width="131.2" height="131.2"/>
	<circle class="st3" cx="156.8" cy="139" r="20.2"/>
	<polygon class="st1" points="131.1,172.3 154.5,144.3 191.8,178 191.8,213.4 131.1,213.4 	"/>
	<polygon class="st0" points="60.7,171.8 87.1,131.2 171.3,213.4 60.7,213.4 	"/>
	<path class="st0" d="M130.5,255.5H63.4c-0.7,0-1.2-0.5-1.2-1.2v-14.1c0-0.7,0.5-1.2,1.2-1.2h67.1c0.7,0,1.2,0.5,1.2,1.2v14.1
		C131.7,255,131.1,255.5,130.5,255.5z"/>
	<path class="st0" d="M130.5,331.1H63.4c-0.7,0-1.2-0.5-1.2-1.2v-14.1c0-0.7,0.5-1.2,1.2-1.2h67.1c0.7,0,1.2,0.5,1.2,1.2v14.1
		C131.7,330.6,131.1,331.1,130.5,331.1z"/>
	<path class="st0" d="M194.6,293.4H63.4c-0.7,0-1.2-0.5-1.2-1.2v-14.1c0-0.7,0.5-1.2,1.2-1.2h131.2c0.7,0,1.2,0.5,1.2,1.2v14.1
		C195.8,292.9,195.2,293.4,194.6,293.4z"/>
</g>
<polygon class="st4" points="200.3,208.1 221.7,217 223.1,227.7 199.3,221 "/>
<path class="st5" d="M259.1,242.5c-0.7,0-1.4-0.1-2.2-0.2l-45.6-9.2l4.3-21.3l34.4,7l9-57.7l21.5,3.3l-10.7,69
	c-0.5,2.9-2.1,5.5-4.5,7.2C263.4,241.9,261.3,242.5,259.1,242.5z"/>
<g>
	<path class="st6" d="M278.2,471.9c-0.2-1.2,0.7-31.1,0.7-31.1l-15.9,0.2l-0.9,31.2L278.2,471.9z"/>
	<path class="st7" d="M235.1,479l44.4-0.2l-0.1-13.6l-30.6,0.2C241.2,465.4,235.1,471.5,235.1,479L235.1,479z"/>
</g>
<g>
	<path class="st6" d="M408.1,442.3c-0.9-0.8-18.4-25.1-18.4-25.1l-12.5,9.8l18.3,25.3L408.1,442.3z"/>
	<path class="st7" d="M378.2,474.1l35.1-27.2l-8.4-10.7L380.7,455C374.7,459.6,373.6,468.2,378.2,474.1L378.2,474.1z"/>
</g>
<path class="st8" d="M334.3,237.9l9,94.7l-2.6-7l61.2,97l-25,16.4l-64.7-94.7c-1.2-1.8-2-3.7-2.4-5.6l-0.3-1.3l-18.9-93.3
	L334.3,237.9z"/>
<path class="st8" d="M306.6,243.1c-3.3,17.2-6.2,30.6-9.1,47.9c-1.5,8.6-2.8,17.3-4.2,25.9l-4.1,25.9l0.1-1.7l-1.3,27.4
	c-0.4,9.1-0.9,18.3-1.2,27.4c-0.7,18.3-1.3,36.6-1.6,54.9l-29.9-0.5c0.4-18.3,0.4-36.6,0.3-54.9c0-9.1-0.1-18.3-0.2-27.4l-0.3-27.4
	l0-0.4l0.1-1.3l2.1-26.2c0.7-8.7,1.5-17.4,2-26.2c1.2-17.5,2.4-31,3.3-48.5L306.6,243.1z"/>
<path class="st9" d="M323.2,152.9h-55.4c-5,0-9,4.1-8.8,9.1l2.1,72.9c0.1,4.8,4.1,8.6,8.8,8.6h55.6c4.7,0,8.6-3.7,8.8-8.4l2.9-67.4
	C337.6,159.6,331.2,152.9,323.2,152.9z"/>
<polygon class="st4" points="284.7,139.6 284.7,157.9 299.7,154.4 297.1,138.1 "/>
<path class="st4" d="M268.8,119.2l4.1-1.4l1.9,5.3l-3.9,0.7l-2.5-1.7C267.4,121.3,267.6,119.7,268.8,119.2z"/>
<g>
	<defs>
		<path id="SVGID_1_" d="M270.6,127.6c1.6,9.3,10.5,15.6,19.8,14c9.3-1.6,15.6-10.5,14-19.8c-1.6-9.3-10.5-15.6-19.8-14
			C275.2,109.4,269,118.3,270.6,127.6z"/>
	</defs>
	<use xlink:href="#SVGID_1_"  style="overflow:visible;fill:#FFBDA1;"/>
	<clipPath id="SVGID_2_">
		<use xlink:href="#SVGID_1_"  style="overflow:visible;"/>
	</clipPath>
	<path class="st10" d="M289.1,103.1c0,0-9.6,28.4,16.8,28.4c7.5,0,4.3-15.3,4.3-15.3L289.1,103.1z"/>
	
		<rect x="270.8" y="104.6" transform="matrix(0.9708 0.2399 -0.2399 0.9708 34.4701 -64.1723)" class="st10" width="20.2" height="9.9"/>
</g>
<path class="st4" d="M289.9,127.3c0.5,2.6,2.9,4.4,5.5,3.9c2.6-0.5,4.4-2.9,3.9-5.5c-0.5-2.6-2.9-4.4-5.5-3.9
	C291.2,122.2,289.5,124.7,289.9,127.3z"/>
<path d="M315.7,119.3c8.6-3.8,12.5-13.8,8.7-22.4s-13.8-12.5-22.4-8.7c-8.6,3.8-12.5,13.8-8.7,22.4
	C297.1,119.2,307.2,123.1,315.7,119.3z"/>
<path class="st4" d="M307.5,152.9l-31.1,0c0,0,1.6,11.6,15.6,11.6C306.1,164.5,307.5,152.9,307.5,152.9z"/>
<g>
	<g>
		<path class="st4" d="M225,204.1c2.9,4.4,8.9,5.6,13.3,2.7c4.4-2.9,5.6-8.9,2.7-13.3c-2.9-4.4-8.9-5.6-13.3-2.7
			C223.3,193.7,222.1,199.7,225,204.1z"/>
		<polygon class="st4" points="235.1,193.4 254.7,205.9 254.2,216.7 231.9,206 		"/>
	</g>
	<path class="st6" d="M215.8,189.2"/>
	<path class="st4" d="M236.8,197.4c-0.4,0-0.7-0.1-1.1-0.2l-13-5.1l-7.2-0.7c-1.6-0.2-2.8-1.6-2.6-3.2c0.2-1.6,1.6-2.8,3.2-2.6
		l7.6,0.7c0.3,0,0.5,0.1,0.8,0.2l13.4,5.3c1.5,0.6,2.2,2.3,1.6,3.8C239.1,196.7,238,197.4,236.8,197.4z"/>
</g>
<path d="M228.8,215.4l-34.9-34.1c-0.6-0.6-1.4-0.9-2.2-0.8l-23.6,1.4c-0.9,0.1-1.3,1.2-0.7,1.8l33.1,32.2c0.7,0.7,1.7,1.1,2.7,1.1
	l24.8,0.1C229,217.2,229.5,216,228.8,215.4z"/>
<path class="st4" d="M192.9,218c3.7,3.8,9.7,4,13.6,0.3c3.8-3.7,4-9.7,0.3-13.6c-3.7-3.8-9.7-4-13.6-0.3
	C189.4,208.1,189.2,214.2,192.9,218z"/>
<path class="st11" d="M312.5,240.2c-1.4,0-2.8-0.3-4.2-0.8l-69-21l8.4-20l56.7,15.8l10.7-51.3c1.1-5.9,6.8-9.8,12.7-8.6l0,0
	c5.9,1.1,9.8,6.8,8.6,12.7l-13.2,64.5c-0.6,3.2-2.6,6-5.5,7.5C316,239.7,314.2,240.2,312.5,240.2z"/>
<g>
</g>
<g>
</g>
<g>
</g>
<g>
</g>
<g>
</g>
<g>
</g>
<g>
</g>
<g>
</g>
<g>
</g>
<g>
</g>
<g>
</g>
<g>
</g>
<g>
</g>
<g>
</g>
<g>
</g>
</svg>
