<?xml version="1.0" encoding="utf-8"?>
<!-- Generator: Adobe Illustrator 22.0.1, SVG Export Plug-In . SVG Version: 6.00 Build 0)  -->
<svg version="1.1" id="Layer_1" xmlns="http://www.w3.org/2000/svg" xmlns:xlink="http://www.w3.org/1999/xlink" x="0px" y="0px"
	 viewBox="0 0 16.1 27.8" style="enable-background:new 0 0 16.1 27.8;" xml:space="preserve">
<style type="text/css">
	.st0{fill:#DDDDDD;}
	.st1{fill:#FFFFFF;}
	.st2{fill:#E13B21;}
	.st3{fill:#FFD474;}
</style>
<g>
	<path class="st0" d="M13.1,0.6H2.6c-1,0-1.8,0.8-1.8,1.8v23c0,1,0.8,1.8,1.8,1.8h10.6c1,0,1.8-0.8,1.8-1.8v-23
		C14.9,1.4,14.1,0.6,13.1,0.6z"/>
	<path class="st1" d="M7.5,26.2c-0.6,0-1.1-0.5-1.1-1.1c0-0.6,0.5-1.1,1.1-1.1c0.6,0,1.1,0.5,1.1,1.1C8.6,25.7,8.1,26.2,7.5,26.2z"
		/>
	<rect x="1.8" y="2.9" class="st1" width="12" height="20.1"/>
	<rect x="3.7" y="4.9" class="st2" width="8.1" height="8.2"/>
	<ellipse class="st3" cx="9.6" cy="8.4" rx="1.3" ry="1.3"/>
	<polygon class="st1" points="8.1,10.5 9.5,8.7 11.8,10.9 11.8,13.1 8.1,13.1 	"/>
	<polygon class="st0" points="3.7,10.5 5.3,7.9 10.5,13.1 3.7,13.1 	"/>
	<path class="st0" d="M7.9,15.7h-4c-0.1,0-0.2-0.1-0.2-0.2v-0.7c0-0.1,0.1-0.2,0.2-0.2h4c0.1,0,0.2,0.1,0.2,0.2v0.7
		C8.1,15.6,8,15.7,7.9,15.7z"/>
	<path class="st0" d="M7.9,20.4h-4c-0.1,0-0.2-0.1-0.2-0.2v-0.7c0-0.1,0.1-0.2,0.2-0.2h4c0.1,0,0.2,0.1,0.2,0.2v0.7
		C8.1,20.4,8,20.4,7.9,20.4z"/>
	<path class="st0" d="M11.9,18.1h-8c-0.1,0-0.2-0.1-0.2-0.2v-0.7c0-0.1,0.1-0.2,0.2-0.2h8c0.1,0,0.2,0.1,0.2,0.2v0.7
		C12,18,12,18.1,11.9,18.1z"/>
</g>
</svg>
