<?xml version="1.0" encoding="utf-8"?>
<!-- Generator: Adobe Illustrator 22.0.1, SVG Export Plug-In . SVG Version: 6.00 Build 0)  -->
<svg version="1.1" id="Layer_1" xmlns="http://www.w3.org/2000/svg" xmlns:xlink="http://www.w3.org/1999/xlink" x="0px" y="0px"
	 viewBox="0 0 849.5 871.2" style="enable-background:new 0 0 849.5 871.2;" xml:space="preserve">
<style type="text/css">
	.st0{fill:#FFBDA1;}
	.st1{fill:#606060;}
	.st2{fill:#FFFFFF;}
	.st3{fill:#F27424;}
	.st4{fill:#F27538;}
	.st5{fill:#1E1A1E;}
	.st6{fill:#EF4231;}
	.st7{clip-path:url(#SVGID_2_);fill:#072042;}
	.st8{fill:#EBF5FF;}
	.st9{fill:#F99D75;}
	.st10{fill:#F38134;}
	.st11{fill:#FAAAAB;}
	.st12{fill:#2F1B17;}
	.st13{fill:#072042;}
</style>
<path class="st0" d="M263.9,612.8l11.7-11.7l1.7-15.8c0.1-1.5,0.4-2.7,1.9-2.9l0.8,0c1.4,0,2.6,1,2.9,2.7l1.7,33.2
	c0.1,2-1.3,3.8-3.3,4.1l-15.5,2.5L263.9,612.8z"/>
<path class="st1" d="M652.3,45.7h-304c-28.6,0-51.8,23.2-51.8,51.8v653.4c0,28.6,23.2,51.8,51.8,51.8h304
	c28.6,0,51.8-23.2,51.8-51.8V97.5C704.1,68.9,680.9,45.7,652.3,45.7z"/>
<path class="st2" d="M490.6,773.7c-17.3,0-31.4-14.1-31.4-31.4s14.1-31.4,31.4-31.4s31.4,14.1,31.4,31.4S508,773.7,490.6,773.7z"/>
<g>
	<g>
		<path class="st2" d="M537.6,75.8h-72.3c-1.9,0-3.4,1.5-3.4,3.4c0,1.9,1.5,3.4,3.4,3.4h72.3c1.9,0,3.4-1.5,3.4-3.4
			C541,77.4,539.5,75.8,537.6,75.8z"/>
		<path class="st2" d="M448.7,83.8c-1.2,0-2.3-0.5-3.2-1.3c-0.2-0.2-0.4-0.5-0.6-0.7c-0.2-0.2-0.3-0.5-0.4-0.8
			c-0.1-0.3-0.2-0.5-0.3-0.8c0-0.3-0.1-0.6-0.1-0.9c0-0.3,0-0.6,0.1-0.9c0.1-0.3,0.2-0.6,0.3-0.8c0.1-0.3,0.3-0.5,0.4-0.8
			c0.2-0.2,0.4-0.5,0.6-0.7c0.2-0.2,0.4-0.4,0.7-0.6c0.2-0.2,0.5-0.3,0.8-0.4c0.3-0.1,0.5-0.2,0.8-0.3c0.6-0.1,1.2-0.1,1.8,0
			c0.3,0.1,0.6,0.2,0.9,0.3c0.3,0.1,0.5,0.2,0.8,0.4c0.2,0.2,0.5,0.4,0.7,0.6c0.2,0.2,0.4,0.4,0.6,0.7c0.2,0.3,0.3,0.5,0.4,0.8
			c0.1,0.3,0.2,0.6,0.2,0.8c0.1,0.3,0.1,0.6,0.1,0.9c0,0.3,0,0.6-0.1,0.9c-0.1,0.3-0.2,0.6-0.3,0.8c-0.1,0.3-0.3,0.5-0.4,0.8
			c-0.2,0.2-0.4,0.5-0.6,0.7c-0.2,0.2-0.5,0.4-0.7,0.6c-0.3,0.2-0.5,0.3-0.8,0.4c-0.3,0.1-0.6,0.2-0.9,0.3
			C449.3,83.7,449,83.8,448.7,83.8z"/>
	</g>
</g>
<rect x="326.5" y="112.1" class="st2" width="343.1" height="570"/>
<rect x="326.5" y="112.1" class="st3" width="343.1" height="57.9"/>
<g>
	<path class="st2" d="M370.6,141.4c0,5.6-4.5,10.1-10.1,10.1c-5.6,0-10.1-4.5-10.1-10.1c0-5.6,4.5-10.1,10.1-10.1
		C366,131.3,370.6,135.8,370.6,141.4z"/>
	<path class="st2" d="M402.9,141.4c0,5.6-4.5,10.1-10.1,10.1c-5.6,0-10.1-4.5-10.1-10.1c0-5.6,4.5-10.1,10.1-10.1
		C398.4,131.3,402.9,135.8,402.9,141.4z"/>
	<path class="st2" d="M435.2,141.4c0,5.6-4.5,10.1-10.1,10.1c-5.6,0-10.1-4.5-10.1-10.1c0-5.6,4.5-10.1,10.1-10.1
		C430.7,131.3,435.2,135.8,435.2,141.4z"/>
</g>
<path class="st4" d="M578.8,652.7H278.6c-2.1,0-3.7-1.7-3.7-3.7v-93.2c0-2.1,1.7-3.7,3.7-3.7h300.2c2.1,0,3.7,1.7,3.7,3.7V649
	C582.6,651,580.9,652.7,578.8,652.7z"/>
<path class="st0" d="M260.8,643.3l11.7-11.7l1.7-15.8c0.1-1.5,0.4-2.7,1.9-2.9l0.8,0c1.4,0,2.6,1,2.9,2.7l1.7,33.2
	c0.1,2-1.3,3.8-3.3,4.1l-15.5,2.5L260.8,643.3z"/>
<g>
	<path class="st0" d="M201.8,817.5c0.3-1.2,9-31,9-31l15.9,0.7l-8.8,31L201.8,817.5z"/>
	<path class="st5" d="M245.8,826.2l-44.3-1.8l0.6-13.6l30.6,1.3C240.2,812.3,246.1,818.7,245.8,826.2L245.8,826.2z"/>
</g>
<path class="st0" d="M13.2,796.3c1.1-0.5,30.7-9.8,30.7-9.8l8.2,13.6L21.5,810L13.2,796.3z"/>
<path class="st6" d="M142.6,678.7l99.2,11.3l1.9,0.2c8.4,1,14.5,8.6,13.5,17c-0.1,1-0.4,2.1-0.7,3l-25.4,80.7l-26.4-1.8l21.2-87.6
	l14.8,20.3l-99.7-5.4L142.6,678.7z"/>
<path class="st6" d="M160.1,706.3l-38.5,75.3l-1.1,2.1c-1.9,3.4-5,5.7-8.5,6.7l-67.7,18.1l-7.5-23.2l65.6-24.7l-9.6,8.8l25.9-81.7
	L160.1,706.3z"/>
<path class="st5" d="M17.7,794.5l8.7,18.5v9.5c0,0,8.9,1.6,10.8,7.6H16.6L6.1,797.4L17.7,794.5z"/>
<path class="st2" d="M215.3,645.2c-0.2,0-0.3,0-0.5,0l-52.3-2.2l1-22.3l50.2,2.1l53.6-16.7l2,21.1l-50.4,17.4
	C217.8,645,216.5,645.2,215.3,645.2z"/>
<path class="st2" d="M161.7,614.1l-1.8-1.2l-4.5,3.4c-8.5,6.3-14.8,15.1-18.2,25.1l-4.1,9.1l-21.7,47.5l45.6,4.7l17.2-27.3
	C187.1,654.8,181.6,627.8,161.7,614.1z"/>
<g>
	<polygon class="st0" points="163.7,605.9 157.8,616.6 169.8,627.9 177.8,606.1 	"/>
	<g>
		<path class="st0" d="M196.2,587.2l-4.8-2.4l-3.2,6.3l4.7,1.4l3.3-1.8C197.7,590,197.6,587.9,196.2,587.2z"/>
		<g>
			<defs>
				<path id="SVGID_1_" d="M192.7,597.2c-3.4,11.2-15.3,17.5-26.5,14.1c-11.2-3.4-17.5-15.3-14.1-26.5c3.4-11.2,15.3-17.5,26.5-14.1
					C189.8,574.1,196.1,586,192.7,597.2z"/>
			</defs>
			<use xlink:href="#SVGID_1_"  style="overflow:visible;fill:#FFBDA1;"/>
			<clipPath id="SVGID_2_">
				<use xlink:href="#SVGID_1_"  style="overflow:visible;"/>
			</clipPath>
			<polygon class="st7" points="181.2,564.6 153.2,613.5 145.8,577 			"/>
		</g>
		<path class="st0" d="M168.7,591.8c-1,3.1-4.3,4.9-7.4,3.9c-3.1-1-4.9-4.3-3.9-7.4c1-3.1,4.3-4.9,7.4-3.9
			C167.9,585.3,169.7,588.7,168.7,591.8z"/>
	</g>
</g>
<path class="st2" d="M208.3,675.8c-1.9,0-3.7-0.5-5.4-1.4l-58.1-31.7l10.7-19.6l54.7,29.8l55.2-16.9l3.8,22l-59,17.5
	C209.6,675.8,209,675.8,208.3,675.8z"/>
<g>
	<g>
		<path class="st8" d="M548.6,594.1H387.2c-0.6,0-1-0.4-1-1v-7.2c0-0.6,0.4-1,1-1h161.4c0.6,0,1,0.4,1,1v7.2
			C549.6,593.6,549.2,594.1,548.6,594.1z"/>
		<path class="st8" d="M482.1,615.6h-94.9c-0.6,0-1-0.4-1-1v-7.2c0-0.6,0.4-1,1-1h94.9c0.6,0,1,0.4,1,1v7.2
			C483.1,615.2,482.6,615.6,482.1,615.6z"/>
	</g>
	<circle class="st8" cx="336.1" cy="602.4" r="29.1"/>
</g>
<path class="st9" d="M648.2,318.2H348c-2.1,0-3.7-1.7-3.7-3.7v-93.2c0-2.1,1.7-3.7,3.7-3.7h300.2c2.1,0,3.7,1.7,3.7,3.7v93.2
	C651.9,316.5,650.2,318.2,648.2,318.2z"/>
<g>
	<g>
		<path class="st2" d="M617.9,259.6H456.5c-0.6,0-1-0.4-1-1v-7.2c0-0.6,0.4-1,1-1h161.4c0.6,0,1,0.4,1,1v7.2
			C619,259.1,618.5,259.6,617.9,259.6z"/>
		<path class="st2" d="M551.4,281.1h-94.9c-0.6,0-1-0.4-1-1v-7.2c0-0.6,0.4-1,1-1h94.9c0.6,0,1,0.4,1,1v7.2
			C552.4,280.6,552,281.1,551.4,281.1z"/>
	</g>
	<circle class="st2" cx="405.4" cy="267.9" r="29.1"/>
</g>
<path class="st10" d="M646.3,479.5H346.1c-2.1,0-3.7-1.7-3.7-3.7v-93.2c0-2.1,1.7-3.7,3.7-3.7h300.2c2.1,0,3.7,1.7,3.7,3.7v93.2
	C650,477.8,648.4,479.5,646.3,479.5z"/>
<g>
	<g>
		<path class="st8" d="M616.1,420.8H454.7c-0.6,0-1-0.4-1-1v-7.2c0-0.6,0.4-1,1-1h161.4c0.6,0,1,0.4,1,1v7.2
			C617.1,420.4,616.6,420.8,616.1,420.8z"/>
		<path class="st8" d="M549.6,442.4h-94.9c-0.6,0-1-0.4-1-1v-7.2c0-0.6,0.4-1,1-1h94.9c0.6,0,1,0.4,1,1v7.2
			C550.6,441.9,550.1,442.4,549.6,442.4z"/>
	</g>
	<circle class="st8" cx="403.5" cy="429.1" r="29.1"/>
</g>
<path class="st0" d="M805.8,669.9c-6-1.6-11.9,2.2-13.2,8.5c-1.3,6.3,2.5,12.8,8.5,14.5c6,1.6,11.9-2.2,13.2-8.5
	C815.6,678,811.8,671.5,805.8,669.9z"/>
<g>
	<path class="st0" d="M605.2,442.7c6.9,0.1,12.5,5.9,12.6,13c0,7.1-5.5,12.8-12.4,12.7c-6.9-0.1-12.5-5.9-12.6-13
		C592.7,448.2,598.2,442.6,605.2,442.7z"/>
</g>
<polygon class="st11" points="693.6,859.8 709.9,859.2 709.6,830.5 693,831.2 "/>
<path class="st12" d="M667,870.6l43.2-0.5l-0.3-16.3l-26,0.3C674.5,854.2,666.9,860.1,667,870.6L667,870.6z"/>
<polygon class="st11" points="766.2,859.8 749.8,859.2 746.4,830.5 763,831.2 "/>
<path class="st12" d="M792.7,870.6l-41.6-0.5l-1.9-16.3l26.6,0.3C785.2,854.2,792.8,860.1,792.7,870.6L792.7,870.6z"/>
<g>
	<g>
		<polygon class="st2" points="692.5,636.8 720.8,635.7 723.8,635.6 752.1,634.6 752.5,676 694.6,678.2 		"/>
	</g>
	<path class="st2" d="M744.2,844.2L770,844l-13.6-106.8l-4.3-102.7l-27.3,4.5l3.7,99.2c0,1.1,0.1,2.3,0.3,3.4L744.2,844.2z"/>
	<path class="st2" d="M687.9,843l24.5,0.2l-3.6-101.7l13.7-101.6l-30-3.1l-11.6,102.9c-0.1,1-0.1,2,0,3.1L687.9,843z"/>
</g>
<rect x="714.2" y="531.9" class="st0" width="16.7" height="22.4"/>
<g>
	<path class="st0" d="M705.9,518.4c0,3.1-2.5,5.5-5.5,5.5c-3.1,0-5.5-2.5-5.5-5.5s2.5-5.5,5.5-5.5
		C703.4,512.9,705.9,515.4,705.9,518.4z"/>
	<path class="st0" d="M750.5,518.4c0,3.1-2.5,5.5-5.5,5.5c-3.1,0-5.5-2.5-5.5-5.5s2.5-5.5,5.5-5.5
		C748,512.9,750.5,515.4,750.5,518.4z"/>
	<circle class="st13" cx="722.7" cy="513.7" r="22.8"/>
</g>
<path class="st6" d="M752.2,639.6H692l-2.3-70.8c0-11.9,7.4-21.5,18.5-21.5H736c11.1,0,18.5,9.6,18.5,21.5L752.2,639.6z"/>
<path class="st6" d="M790,676.1l-22.8-60.4L728,562.5L749,553l35,49.1c1.2,1.3,2.1,2.9,2.5,4.7l23.5,63L790,676.1z"/>
<path class="st6" d="M693.1,573.3l-45.2-46.9c-0.2-0.2-0.4-0.5-0.6-0.7l-44.4-53.6l18.9-15.7l44.1,53.3l44.9,46.5L693.1,573.3z"/>
<g>
</g>
<g>
</g>
<g>
</g>
<g>
</g>
<g>
</g>
<g>
</g>
<g>
</g>
<g>
</g>
<g>
</g>
<g>
</g>
<g>
</g>
<g>
</g>
<g>
</g>
<g>
</g>
<g>
</g>
</svg>
