<?xml version="1.0" encoding="utf-8"?>
<!-- Generator: Adobe Illustrator 22.0.1, SVG Export Plug-In . SVG Version: 6.00 Build 0)  -->
<svg version="1.1" id="Layer_1" xmlns="http://www.w3.org/2000/svg" xmlns:xlink="http://www.w3.org/1999/xlink" x="0px" y="0px"
	 viewBox="0 0 43.9 43.4" style="enable-background:new 0 0 43.9 43.4;" xml:space="preserve">
<style type="text/css">
	.st0{fill:#FFBDA1;}
	.st1{fill:#DDDDDD;}
	.st2{fill:#FFFFFF;}
	.st3{fill:#BCBCBC;}
	.st4{fill:#F27538;}
	.st5{fill:#1E1A1E;}
	.st6{fill:#EF4231;}
	.st7{clip-path:url(#SVGID_3_);fill:#072042;}
	.st8{fill:#EBF5FF;}
	.st9{fill:#F99D75;}
	.st10{fill:#F38134;}
	.st11{fill:#FAAAAB;}
	.st12{fill:#2F1B17;}
	.st13{fill:#072042;}
</style>
<path class="st0" d="M13.7,30.2l0.6-0.6l0.1-0.8c0-0.1,0-0.1,0.1-0.1h0c0.1,0,0.1,0.1,0.1,0.1l0.1,1.7c0,0.1-0.1,0.2-0.2,0.2
	l-0.8,0.1L13.7,30.2z"/>
<path class="st1" d="M33.7,1H18.1c-1.5,0-2.7,1.2-2.7,2.7v33.6c0,1.5,1.2,2.7,2.7,2.7h15.6c1.5,0,2.7-1.2,2.7-2.7V3.7
	C36.4,2.2,35.2,1,33.7,1z"/>
<path class="st2" d="M25.4,38.4c-0.9,0-1.6-0.7-1.6-1.6s0.7-1.6,1.6-1.6s1.6,0.7,1.6,1.6S26.3,38.4,25.4,38.4z"/>
<g>
	<g>
		<path class="st2" d="M27.8,2.5h-3.7c-0.1,0-0.2,0.1-0.2,0.2s0.1,0.2,0.2,0.2h3.7c0.1,0,0.2-0.1,0.2-0.2C28,2.6,27.9,2.5,27.8,2.5z
			"/>
		<path class="st2" d="M23.2,3c-0.1,0-0.1,0-0.2-0.1c0,0,0,0,0,0c0,0,0,0,0,0c0,0,0,0,0,0c0,0,0,0,0,0s0,0,0,0s0,0,0,0c0,0,0,0,0,0
			c0,0,0,0,0,0c0,0,0,0,0,0c0,0,0,0,0,0c0,0,0,0,0,0c0,0,0.1,0,0.1,0c0,0,0,0,0,0c0,0,0,0,0,0c0,0,0,0,0,0c0,0,0,0,0,0c0,0,0,0,0,0
			s0,0,0,0c0,0,0,0,0,0s0,0,0,0c0,0,0,0,0,0c0,0,0,0,0,0c0,0,0,0,0,0c0,0,0,0,0,0C23.4,2.9,23.4,2.9,23.2,3C23.3,2.9,23.3,3,23.2,3
			C23.3,3,23.3,3,23.2,3z"/>
	</g>
</g>
<rect x="17" y="4.4" class="st2" width="17.6" height="29.3"/>
<rect x="17" y="4.4" class="st3" width="17.6" height="3"/>
<g>
	<path class="st2" d="M19.2,5.9c0,0.3-0.2,0.5-0.5,0.5s-0.5-0.2-0.5-0.5s0.2-0.5,0.5-0.5C19,5.4,19.2,5.6,19.2,5.9z"/>
	<path class="st2" d="M20.9,5.9c0,0.3-0.2,0.5-0.5,0.5c-0.3,0-0.5-0.2-0.5-0.5s0.2-0.5,0.5-0.5C20.7,5.4,20.9,5.6,20.9,5.9z"/>
	<path class="st2" d="M22.6,5.9c0,0.3-0.2,0.5-0.5,0.5s-0.5-0.2-0.5-0.5s0.2-0.5,0.5-0.5C22.3,5.4,22.6,5.6,22.6,5.9z"/>
</g>
<path class="st4" d="M29.9,32.2H14.5c-0.1,0-0.2-0.1-0.2-0.2v-4.8c0-0.1,0.1-0.2,0.2-0.2h15.4c0.1,0,0.2,0.1,0.2,0.2V32
	C30.1,32.1,30,32.2,29.9,32.2z"/>
<path class="st0" d="M13.6,31.7l0.6-0.6l0.1-0.8c0-0.1,0-0.1,0.1-0.1h0c0.1,0,0.1,0.1,0.1,0.1l0.1,1.7c0,0.1-0.1,0.2-0.2,0.2
	l-0.8,0.1L13.6,31.7z"/>
<g>
	<path class="st0" d="M10.5,40.7c0-0.1,0.5-1.6,0.5-1.6l0.8,0l-0.5,1.6L10.5,40.7z"/>
	<path class="st5" d="M12.8,41.1l-2.3-0.1l0-0.7l1.6,0.1C12.5,40.4,12.8,40.8,12.8,41.1L12.8,41.1z"/>
</g>
<path class="st0" d="M0.8,39.6c0.1,0,1.6-0.5,1.6-0.5l0.4,0.7l-1.6,0.5L0.8,39.6z"/>
<path class="st6" d="M7.5,33.6l5.1,0.6l0.1,0c0.4,0.1,0.7,0.4,0.7,0.9c0,0.1,0,0.1,0,0.2l-1.3,4.2l-1.4-0.1l1.1-4.5l0.8,1l-5.1-0.3
	L7.5,33.6z"/>
<path class="st6" d="M8.4,35l-2,3.9L6.4,39c-0.1,0.2-0.3,0.3-0.4,0.3l-3.5,0.9L2.1,39l3.4-1.3l-0.5,0.5L6.3,34L8.4,35z"/>
<path class="st5" d="M1.1,39.5l0.4,1V41c0,0,0.5,0.1,0.6,0.4H1l-0.5-1.7L1.1,39.5z"/>
<path class="st2" d="M11.2,31.8C11.2,31.8,11.2,31.8,11.2,31.8l-2.7-0.1l0.1-1.1l2.6,0.1l2.8-0.9l0.1,1.1l-2.6,0.9
	C11.4,31.8,11.3,31.8,11.2,31.8z"/>
<path class="st2" d="M8.5,30.2L8.5,30.2l-0.3,0.1c-0.4,0.3-0.8,0.8-0.9,1.3L7,32.1l-1.1,2.4l2.3,0.2l0.9-1.4
	C9.8,32.3,9.5,30.9,8.5,30.2z"/>
<g>
	<polygon class="st0" points="8.6,29.8 8.3,30.4 8.9,30.9 9.3,29.8 	"/>
	<g>
		<path class="st0" d="M10.3,28.9L10,28.7l-0.2,0.3l0.2,0.1l0.2-0.1C10.3,29,10.3,28.9,10.3,28.9z"/>
		<g>
			<g>
				<path id="SVGID_1_" class="st0" d="M10.1,29.4c-0.2,0.6-0.8,0.9-1.4,0.7c-0.6-0.2-0.9-0.8-0.7-1.4c0.2-0.6,0.8-0.9,1.4-0.7
					C9.9,28.2,10.3,28.8,10.1,29.4z"/>
			</g>
			<g>
				<defs>
					<path id="SVGID_2_" d="M10.1,29.4c-0.2,0.6-0.8,0.9-1.4,0.7c-0.6-0.2-0.9-0.8-0.7-1.4c0.2-0.6,0.8-0.9,1.4-0.7
						C9.9,28.2,10.3,28.8,10.1,29.4z"/>
				</defs>
				<clipPath id="SVGID_3_">
					<use xlink:href="#SVGID_2_"  style="overflow:visible;"/>
				</clipPath>
				<polygon class="st7" points="9.5,27.7 8,30.2 7.7,28.3 				"/>
			</g>
		</g>
		<path class="st0" d="M8.8,29.1c-0.1,0.2-0.2,0.3-0.4,0.2c-0.2-0.1-0.3-0.2-0.2-0.4c0.1-0.2,0.2-0.3,0.4-0.2
			C8.8,28.8,8.9,28.9,8.8,29.1z"/>
	</g>
</g>
<path class="st2" d="M10.9,33.4c-0.1,0-0.2,0-0.3-0.1l-3-1.6l0.6-1l2.8,1.5l2.8-0.9l0.2,1.1L10.9,33.4
	C10.9,33.4,10.9,33.4,10.9,33.4z"/>
<g>
	<g>
		<path class="st8" d="M28.4,29.2h-8.3c0,0-0.1,0-0.1-0.1v-0.4c0,0,0-0.1,0.1-0.1h8.3c0,0,0.1,0,0.1,0.1L28.4,29.2
			C28.4,29.2,28.4,29.2,28.4,29.2z"/>
		<path class="st8" d="M25,30.3h-4.9c0,0-0.1,0-0.1-0.1v-0.4c0,0,0-0.1,0.1-0.1H25c0,0,0.1,0,0.1,0.1L25,30.3
			C25,30.3,25,30.3,25,30.3z"/>
	</g>
	<circle class="st8" cx="17.5" cy="29.6" r="1.5"/>
</g>
<path class="st9" d="M33.5,15H18.1c-0.1,0-0.2-0.1-0.2-0.2V10c0-0.1,0.1-0.2,0.2-0.2h15.4c0.1,0,0.2,0.1,0.2,0.2v4.8
	C33.7,14.9,33.6,15,33.5,15z"/>
<g>
	<g>
		<path class="st2" d="M31.9,12h-8.3c0,0-0.1,0-0.1-0.1v-0.4c0,0,0-0.1,0.1-0.1h8.3c0,0,0.1,0,0.1,0.1L31.9,12C32,12,32,12,31.9,12z
			"/>
		<path class="st2" d="M28.5,13.1h-4.9c0,0-0.1,0-0.1-0.1v-0.4c0,0,0-0.1,0.1-0.1h4.9c0,0,0.1,0,0.1,0.1L28.5,13.1
			C28.6,13.1,28.6,13.1,28.5,13.1z"/>
	</g>
	<circle class="st2" cx="21" cy="12.4" r="1.5"/>
</g>
<path class="st10" d="M33.4,23.3H18c-0.1,0-0.2-0.1-0.2-0.2v-4.8c0-0.1,0.1-0.2,0.2-0.2h15.4c0.1,0,0.2,0.1,0.2,0.2v4.8
	C33.6,23.2,33.5,23.3,33.4,23.3z"/>
<g>
	<g>
		<path class="st8" d="M31.9,20.3h-8.3c0,0-0.1,0-0.1-0.1v-0.4c0,0,0-0.1,0.1-0.1h8.3c0,0,0.1,0,0.1,0.1L31.9,20.3
			C31.9,20.3,31.9,20.3,31.9,20.3z"/>
		<path class="st8" d="M28.4,21.4h-4.9c0,0-0.1,0-0.1-0.1V21c0,0,0-0.1,0.1-0.1h4.9c0,0,0.1,0,0.1,0.1L28.4,21.4
			C28.5,21.4,28.5,21.4,28.4,21.4z"/>
	</g>
	<circle class="st8" cx="20.9" cy="20.7" r="1.5"/>
</g>
<path class="st0" d="M41.6,33.1c-0.3-0.1-0.6,0.1-0.7,0.4c-0.1,0.3,0.1,0.7,0.4,0.7c0.3,0.1,0.6-0.1,0.7-0.4
	C42.1,33.5,41.9,33.2,41.6,33.1z"/>
<g>
	<path class="st0" d="M31.3,21.4c0.4,0,0.6,0.3,0.6,0.7c0,0.4-0.3,0.7-0.6,0.7c-0.4,0-0.6-0.3-0.6-0.7
		C30.7,21.7,30.9,21.4,31.3,21.4z"/>
</g>
<polygon class="st11" points="35.8,42.9 36.7,42.8 36.7,41.4 35.8,41.4 "/>
<path class="st12" d="M34.5,43.4l2.2,0l0-0.8l-1.3,0C34.9,42.6,34.5,42.9,34.5,43.4L34.5,43.4z"/>
<polygon class="st11" points="39.6,42.9 38.7,42.8 38.6,41.4 39.4,41.4 "/>
<path class="st12" d="M40.9,43.4l-2.1,0l-0.1-0.8l1.4,0C40.6,42.6,40.9,42.9,40.9,43.4L40.9,43.4z"/>
<g>
	<g>
		<polygon class="st2" points="35.8,31.4 37.2,31.3 37.4,31.3 38.9,31.3 38.9,33.4 35.9,33.5 		"/>
	</g>
	<path class="st2" d="M38.4,42.1l1.3,0l-0.7-5.5l-0.2-5.3l-1.4,0.2l0.2,5.1c0,0.1,0,0.1,0,0.2L38.4,42.1z"/>
	<path class="st2" d="M35.6,42l1.3,0l-0.2-5.2l0.7-5.2l-1.5-0.2l-0.6,5.3c0,0.1,0,0.1,0,0.2L35.6,42z"/>
</g>
<rect x="36.9" y="26" class="st0" width="0.9" height="1.2"/>
<g>
	<path class="st0" d="M36.5,25.3c0,0.2-0.1,0.3-0.3,0.3c-0.2,0-0.3-0.1-0.3-0.3c0-0.2,0.1-0.3,0.3-0.3C36.3,25,36.5,25.2,36.5,25.3z
		"/>
	<path class="st0" d="M38.8,25.3c0,0.2-0.1,0.3-0.3,0.3c-0.2,0-0.3-0.1-0.3-0.3c0-0.2,0.1-0.3,0.3-0.3S38.8,25.2,38.8,25.3z"/>
	<circle class="st13" cx="37.3" cy="25.1" r="1.2"/>
</g>
<path class="st6" d="M38.9,31.5h-3.1l-0.1-3.6c0-0.6,0.4-1.1,1-1.1H38c0.6,0,1,0.5,1,1.1L38.9,31.5z"/>
<path class="st6" d="M40.8,33.4l-1.2-3.1l-2-2.7l1.1-0.5l1.8,2.5c0.1,0.1,0.1,0.1,0.1,0.2l1.2,3.2L40.8,33.4z"/>
<path class="st6" d="M35.8,28.1l-2.3-2.4c0,0,0,0,0,0l-2.3-2.8l1-0.8l2.3,2.7l2.3,2.4L35.8,28.1z"/>
</svg>
