<?xml version="1.0" encoding="iso-8859-1"?>
<!-- Generator: Adobe Illustrator 19.0.0, SVG Export Plug-In . SVG Version: 6.00 Build 0)  -->
<svg version="1.1" id="Layer_1" xmlns="http://www.w3.org/2000/svg" xmlns:xlink="http://www.w3.org/1999/xlink" x="0px" y="0px"
	 viewBox="0 0 512 512" style="enable-background:new 0 0 512 512;" xml:space="preserve">
<g>
	<g>
		<path d="M482.145,2.183H29.855C13.392,2.183,0,15.576,0,32.038v447.924c0,16.462,13.392,29.855,29.855,29.855h452.29
			c16.463,0,29.855-13.392,29.855-29.854V32.038C512,15.576,498.608,2.183,482.145,2.183z M496.819,479.963
			c0,8.091-6.583,14.675-14.675,14.675H29.855c-8.091,0-14.675-6.583-14.675-14.675V32.038c0-8.091,6.583-14.675,14.675-14.675
			h452.29c8.091,0,14.675,6.583,14.675,14.675V479.963z"/>
	</g>
</g>
<g>
	<g>
		<path d="M504.41,88.112H9.153c-4.193,0-7.59,3.398-7.59,7.59c0,4.192,3.397,7.59,7.59,7.59H504.41c4.193,0,7.59-3.398,7.59-7.59
			C512,91.511,508.603,88.112,504.41,88.112z"/>
	</g>
</g>
<g>
	<g>
		<path d="M454.223,29.967c-12.439,0-22.559,10.12-22.559,22.559s10.12,22.559,22.559,22.559s22.559-10.12,22.559-22.559
			S466.662,29.967,454.223,29.967z M454.223,59.906c-4.068,0-7.379-3.31-7.379-7.379c0-4.068,3.309-7.379,7.379-7.379
			s7.379,3.31,7.379,7.379C461.602,56.595,458.291,59.906,454.223,59.906z"/>
	</g>
</g>
<g>
	<g>
		<path d="M393.091,29.967c-12.439,0-22.559,10.12-22.559,22.559s10.12,22.559,22.559,22.559c12.439,0,22.559-10.12,22.559-22.559
			S405.53,29.967,393.091,29.967z M393.091,59.906c-4.068,0-7.379-3.31-7.379-7.379c0-4.068,3.309-7.379,7.379-7.379
			s7.379,3.31,7.379,7.379C400.469,56.595,397.159,59.906,393.091,59.906z"/>
	</g>
</g>
<g>
	<g>
		<path d="M331.958,29.967c-12.439,0-22.559,10.12-22.559,22.559s10.12,22.559,22.559,22.559c12.439,0,22.559-10.12,22.559-22.559
			S344.396,29.967,331.958,29.967z M331.958,59.906c-4.068,0-7.379-3.31-7.379-7.379c0-4.068,3.309-7.379,7.379-7.379
			c4.068,0,7.379,3.31,7.379,7.379C339.336,56.595,336.026,59.906,331.958,59.906z"/>
	</g>
</g>
<g>
	<g>
		<path d="M258.605,29.967H65.708c-12.439,0-22.559,10.12-22.559,22.559s10.12,22.559,22.559,22.559h192.896
			c12.439,0,22.56-10.12,22.56-22.559S271.044,29.967,258.605,29.967z M258.605,59.906H65.708c-4.068,0-7.379-3.31-7.379-7.379
			c0-4.068,3.309-7.379,7.379-7.379h192.897c4.068,0,7.379,3.31,7.379,7.379C265.984,56.595,262.674,59.906,258.605,59.906z"/>
	</g>
</g>
<g>
	<g>
		<path d="M504.41,88.112H8.141c-4.193,0-7.59,3.398-7.59,7.59v64.644c0,4.192,3.397,7.59,7.59,7.59H504.41
			c4.193,0,7.59-3.397,7.59-7.59V95.702C512,91.511,508.603,88.112,504.41,88.112z M496.819,152.756H15.731v-49.463h481.088V152.756
			z"/>
	</g>
</g>
<g>
	<g>
		<path d="M454.375,440.25H331.807c-4.193,0-7.59,3.398-7.59,7.59v21.036c0,4.192,3.397,7.59,7.59,7.59h122.568
			c4.192,0,7.59-3.398,7.59-7.59V447.84C461.965,443.648,458.567,440.25,454.375,440.25z M446.783,461.286H339.396v-5.856h107.387
			V461.286z"/>
	</g>
</g>
<g>
	<g>
		<path d="M166.137,440.25H43.569c-4.193,0-7.59,3.398-7.59,7.59v21.036c0,4.192,3.397,7.59,7.59,7.59h122.568
			c4.193,0,7.59-3.398,7.59-7.59V447.84C173.727,443.648,170.33,440.25,166.137,440.25z M158.547,461.286H51.16v-5.856h107.387
			V461.286z"/>
	</g>
</g>
<g>
	<g>
		<path d="M177.73,184.808c-4.193,0-7.59,3.398-7.59,7.59v206.951c0,4.192,3.397,7.59,7.59,7.59s7.59-3.398,7.59-7.59V192.399
			C185.32,188.207,181.923,184.808,177.73,184.808z"/>
	</g>
</g>
<g>
	<g>
		<path d="M449.967,355.618H223.965c-4.193,0-7.59,3.398-7.59,7.59v36.141c0,4.192,3.397,7.59,7.59,7.59h226.002
			c4.193,0,7.59-3.398,7.59-7.59v-36.141C457.557,359.016,454.16,355.618,449.967,355.618z M442.377,391.759H231.555v-20.96h210.822
			V391.759z"/>
	</g>
</g>
<g>
	<g>
		<path d="M449.967,193.412H223.965c-4.193,0-7.59,3.398-7.59,7.59v57.901c0,4.192,3.397,7.59,7.59,7.59h226.002
			c4.193,0,7.59-3.398,7.59-7.59v-57.901C457.557,196.81,454.16,193.412,449.967,193.412z M442.377,251.312H231.555v-42.72h210.822
			V251.312z"/>
	</g>
</g>
<g>
	<g>
		<path d="M143.669,193.412h-92.93c-4.193,0-7.59,3.398-7.59,7.59c0,4.192,3.397,7.59,7.59,7.59h92.93c4.193,0,7.59-3.398,7.59-7.59
			C151.259,196.81,147.862,193.412,143.669,193.412z"/>
	</g>
</g>
<g>
	<g>
		<path d="M143.669,224.615h-92.93c-4.193,0-7.59,3.398-7.59,7.59c0,4.192,3.397,7.59,7.59,7.59h92.93c4.193,0,7.59-3.398,7.59-7.59
			C151.259,228.013,147.862,224.615,143.669,224.615z"/>
	</g>
</g>
<g>
	<g>
		<path d="M143.669,255.819h-92.93c-4.193,0-7.59,3.398-7.59,7.59c0,4.192,3.397,7.59,7.59,7.59h92.93c4.193,0,7.59-3.398,7.59-7.59
			C151.259,259.217,147.862,255.819,143.669,255.819z"/>
	</g>
</g>
<g>
	<g>
		<path d="M143.669,287.023h-92.93c-4.193,0-7.59,3.398-7.59,7.59c0,4.192,3.397,7.59,7.59,7.59h92.93c4.193,0,7.59-3.398,7.59-7.59
			C151.259,290.421,147.862,287.023,143.669,287.023z"/>
	</g>
</g>
<g>
	<g>
		<path d="M143.669,318.226h-92.93c-4.193,0-7.59,3.398-7.59,7.59c0,4.192,3.397,7.59,7.59,7.59h92.93c4.193,0,7.59-3.398,7.59-7.59
			C151.259,321.625,147.862,318.226,143.669,318.226z"/>
	</g>
</g>
<g>
	<g>
		<path d="M143.669,349.43h-92.93c-4.193,0-7.59,3.398-7.59,7.59c0,4.192,3.397,7.59,7.59,7.59h92.93c4.193,0,7.59-3.398,7.59-7.59
			C151.259,352.829,147.862,349.43,143.669,349.43z"/>
	</g>
</g>
<g>
	<g>
		<path d="M143.669,380.634h-92.93c-4.193,0-7.59,3.398-7.59,7.59c0,4.192,3.397,7.59,7.59,7.59h92.93c4.193,0,7.59-3.398,7.59-7.59
			C151.259,384.033,147.862,380.634,143.669,380.634z"/>
	</g>
</g>
<g>
	<g>
		<path d="M449.967,287.023H218.232c-4.193,0-7.59,3.398-7.59,7.59c0,4.192,3.397,7.59,7.59,7.59h231.735
			c4.193,0,7.59-3.398,7.59-7.59C457.557,290.421,454.16,287.023,449.967,287.023z"/>
	</g>
</g>
<g>
	<g>
		<path d="M449.967,318.226H218.232c-4.193,0-7.59,3.398-7.59,7.59c0,4.192,3.397,7.59,7.59,7.59h231.735
			c4.193,0,7.59-3.398,7.59-7.59C457.557,321.625,454.16,318.226,449.967,318.226z"/>
	</g>
</g>
<g>
</g>
<g>
</g>
<g>
</g>
<g>
</g>
<g>
</g>
<g>
</g>
<g>
</g>
<g>
</g>
<g>
</g>
<g>
</g>
<g>
</g>
<g>
</g>
<g>
</g>
<g>
</g>
<g>
</g>
</svg>
