<?xml version="1.0" encoding="utf-8"?>
<!-- Generator: Adobe Illustrator 22.0.1, SVG Export Plug-In . SVG Version: 6.00 Build 0)  -->
<svg version="1.1" id="Layer_1" xmlns="http://www.w3.org/2000/svg" xmlns:xlink="http://www.w3.org/1999/xlink" x="0px" y="0px"
	 viewBox="0 0 568.5 374.9" style="enable-background:new 0 0 568.5 374.9;" xml:space="preserve">
<style type="text/css">
	.st0{fill:url(#SVGID_1_);}
	.st1{fill:#E8E8E8;}
</style>
<linearGradient id="SVGID_1_" gradientUnits="userSpaceOnUse" x1="-56.674" y1="540.3378" x2="54.7368" y2="540.3378" gradientTransform="matrix(0.9568 0.2907 -0.2907 0.9568 219.6189 -364.2457)">
	<stop  offset="0" style="stop-color:#ED415C"/>
	<stop  offset="1" style="stop-color:#F38449"/>
</linearGradient>
<path class="st0" d="M-8.5,229.3l0.5,0.5c7.8,7.1,19.9,6.5,27-1.3l114-125.8c7.1-7.8,6.5-19.9-1.3-27l-0.5-0.5
	c-7.8-7.1-19.9-6.5-27,1.3l-114,125.8C-16.9,210.1-16.3,222.2-8.5,229.3z"/>
<g>
	<path class="st1" d="M414.9,235.3l-52.4,59.4c1,2.2,2.2,4.3,3.6,6.2l55.5-62.8C419.4,237,417.2,236.1,414.9,235.3z"/>
	<path class="st1" d="M398.5,233.3l-40.1,45.4c0.2,3,0.6,5.9,1.4,8.7l47.5-53.9C404.3,233.2,401.4,233.1,398.5,233.3z"/>
	<path class="st1" d="M360,264.3c-0.3,1-0.5,2-0.7,3l28.1-31.8C374.6,240,364.1,250.4,360,264.3z"/>
	<path class="st1" d="M443.2,265.2l-47.5,53.9c3,0.4,5.9,0.5,8.8,0.3l40.1-45.4C444.4,271,443.9,268,443.2,265.2z"/>
	<path class="st1" d="M427.4,241.8l-56.9,64.5c1.6,1.6,3.3,3.1,5.1,4.5l56.9-64.5C430.9,244.7,429.2,243.2,427.4,241.8z"/>
	<path class="st1" d="M415.6,317.1c12.8-4.4,23.3-14.8,27.3-28.8c0.3-1,0.5-2,0.7-3L415.6,317.1z"/>
	<path class="st1" d="M436.9,251.7l-55.5,62.8c2.1,1.1,4.3,2,6.6,2.8l52.4-59.4C439.4,255.7,438.2,253.7,436.9,251.7z"/>
</g>
<path class="st1" d="M173.8,267.7c0,5-4,9-9,9c-5,0-9-4-9-9s4-9,9-9C169.7,258.6,173.8,262.7,173.8,267.7z"/>
<circle class="st1" cx="147" cy="42.6" r="3.8"/>
<circle class="st1" cx="487.8" cy="329.3" r="3.8"/>
<circle class="st1" cx="440.5" cy="156.4" r="3.8"/>
<circle class="st1" cx="300.7" cy="60.2" r="3.8"/>
<circle class="st1" cx="300.7" cy="260.4" r="3.8"/>
<g>
</g>
<g>
</g>
<g>
</g>
<g>
</g>
<g>
</g>
<g>
</g>
<g>
</g>
<g>
</g>
<g>
</g>
<g>
</g>
<g>
</g>
<g>
</g>
<g>
</g>
<g>
</g>
<g>
</g>
</svg>
