<?xml version="1.0" encoding="utf-8"?>
<!-- Generator: Adobe Illustrator 22.0.1, SVG Export Plug-In . SVG Version: 6.00 Build 0)  -->
<svg version="1.1" id="Layer_1" xmlns="http://www.w3.org/2000/svg" xmlns:xlink="http://www.w3.org/1999/xlink" x="0px" y="0px"
	 viewBox="0 0 1555.3 970.9" style="enable-background:new 0 0 1555.3 970.9;" xml:space="preserve">
<style type="text/css">
	.st0{fill:url(#SVGID_1_);}
	.st1{fill:url(#SVGID_2_);}
	.st2{fill:url(#SVGID_3_);}
	.st3{fill:url(#SVGID_4_);}
	.st4{fill:url(#SVGID_5_);}
	.st5{fill:url(#SVGID_6_);}
	.st6{fill:url(#SVGID_7_);}
	.st7{fill:#9B9B9B;}
	.st8{fill:#E8E8E8;}
</style>
<g>
	<g>
		<g>
			<g>
				
					<linearGradient id="SVGID_1_" gradientUnits="userSpaceOnUse" x1="1234.246" y1="859.9501" x2="1365.0192" y2="590.3976" gradientTransform="matrix(0.9568 0.2907 -0.2907 0.9568 227.1579 -414.9772)">
					<stop  offset="0" style="stop-color:#ED415C"/>
					<stop  offset="1" style="stop-color:#F38449"/>
				</linearGradient>
				<path class="st0" d="M1234.2,685.6l0.6,0.5c8.8,7.9,22.3,7.3,30.3-1.5l127.8-141c7.9-8.8,7.3-22.3-1.5-30.3l-0.6-0.5
					c-8.8-8-22.3-7.3-30.3,1.5l-127.8,141C1224.7,664.1,1225.4,677.6,1234.2,685.6z"/>
			</g>
			<g>
				
					<linearGradient id="SVGID_2_" gradientUnits="userSpaceOnUse" x1="1293.8207" y1="888.8526" x2="1424.5929" y2="619.3019" gradientTransform="matrix(0.9568 0.2907 -0.2907 0.9568 227.1579 -414.9772)">
					<stop  offset="0" style="stop-color:#ED415C"/>
					<stop  offset="1" style="stop-color:#F38449"/>
				</linearGradient>
				<path class="st1" d="M1419.4,612.3l-0.6-0.5c-8.8-7.9-22.3-7.3-30.3,1.5l-33.9,37.4c7.9-8.8,7.3-22.3-1.5-30.3l-0.6-0.5
					c-8.8-7.9-22.3-7.3-30.3,1.5l-127.8,141c-8,8.8-7.3,22.3,1.5,30.3l0.6,0.5c8.8,8,22.3,7.3,30.3-1.5l33.9-37.4
					c-7.9,8.8-7.3,22.3,1.5,30.3l0.6,0.5c8.8,8,22.3,7.3,30.3-1.5l127.8-141C1428.8,633.8,1428.2,620.2,1419.4,612.3z"/>
			</g>
		</g>
	</g>
	
		<linearGradient id="SVGID_3_" gradientUnits="userSpaceOnUse" x1="1285.7372" y1="960.4126" x2="1309.7567" y2="909.7048" gradientTransform="matrix(0.9568 0.2907 -0.2907 0.9568 227.1579 -414.9772)">
		<stop  offset="0" style="stop-color:#ED415C"/>
		<stop  offset="1" style="stop-color:#F38449"/>
	</linearGradient>
	<path class="st2" d="M1218.6,865.6L1218.6,865.6c-7.9,8.8-21.5,9.4-30.3,1.5l-0.6-0.5c-8.8-7.9-9.4-21.5-1.5-30.3l0,0
		c8-8.8,21.5-9.4,30.3-1.5l0.6,0.5C1225.9,843.3,1226.6,856.8,1218.6,865.6z"/>
</g>
<g>
	<g>
		<g>
			
				<linearGradient id="SVGID_4_" gradientUnits="userSpaceOnUse" x1="246.5304" y1="1135.8939" x2="408.6533" y2="1135.8939" gradientTransform="matrix(0.9568 0.2907 -0.2907 0.9568 227.1579 -414.9772)">
				<stop  offset="0" style="stop-color:#ED415C"/>
				<stop  offset="1" style="stop-color:#F38449"/>
			</linearGradient>
			<path class="st3" d="M108.4,878.9l0.7,0.7c11.4,10.3,29,9.5,39.3-1.9l165.9-183c10.3-11.4,9.5-29-1.9-39.3l-0.7-0.7
				c-11.4-10.3-29-9.5-39.3,1.9l-165.9,183C96.1,850.9,97,868.5,108.4,878.9z"/>
		</g>
		<g>
			
				<linearGradient id="SVGID_5_" gradientUnits="userSpaceOnUse" x1="247.3793" y1="1266.5682" x2="409.5024" y2="1266.5682" gradientTransform="matrix(0.9568 0.2907 -0.2907 0.9568 227.1579 -414.9772)">
				<stop  offset="0" style="stop-color:#ED415C"/>
				<stop  offset="1" style="stop-color:#F38449"/>
			</linearGradient>
			<path class="st4" d="M275.2,780.6l-0.7-0.7c-11.4-10.3-29-9.5-39.3,1.9l-165.9,183c-10.3,11.4-9.5,29,1.9,39.3l0.7,0.7
				c11.4,10.3,29,9.5,39.3-1.9l165.9-183C287.5,808.5,286.6,790.9,275.2,780.6z"/>
		</g>
	</g>
</g>
<linearGradient id="SVGID_6_" gradientUnits="userSpaceOnUse" x1="1203.8185" y1="229.6228" x2="1365.9414" y2="229.6228" gradientTransform="matrix(0.9568 0.2907 -0.2907 0.9568 227.1579 -414.9772)">
	<stop  offset="0" style="stop-color:#ED415C"/>
	<stop  offset="1" style="stop-color:#F38449"/>
</linearGradient>
<path class="st5" d="M1287.8,290l0.7,0.7c11.4,10.3,29,9.5,39.3-1.9l165.9-183c10.3-11.4,9.5-29-1.9-39.3l-0.7-0.7
	c-11.4-10.3-29-9.5-39.3,1.9l-165.9,183C1275.5,262.1,1276.4,279.7,1287.8,290z"/>
<linearGradient id="SVGID_7_" gradientUnits="userSpaceOnUse" x1="-47.0784" y1="680.7471" x2="115.0445" y2="680.7471" gradientTransform="matrix(0.9568 0.2907 -0.2907 0.9568 227.1579 -414.9772)">
	<stop  offset="0" style="stop-color:#ED415C"/>
	<stop  offset="1" style="stop-color:#F38449"/>
</linearGradient>
<path class="st6" d="M-40.2,358l0.7,0.7c11.4,10.3,29,9.5,39.3-1.9l165.9-183c10.3-11.4,9.5-29-1.9-39.3l-0.7-0.7
	c-11.4-10.3-29-9.5-39.3,1.9l-165.9,183C-52.5,330.1-51.6,347.7-40.2,358z"/>
<g>
	<g>
		<path class="st7" d="M1064.8,810.9c0,4.3-3.5,7.8-7.8,7.8c-4.3,0-7.8-3.5-7.8-7.8c0-4.3,3.5-7.8,7.8-7.8
			C1061.3,803.1,1064.8,806.6,1064.8,810.9z"/>
		<path class="st7" d="M1104.6,810.9c0,4.3-3.5,7.8-7.8,7.8c-4.3,0-7.8-3.5-7.8-7.8c0-4.3,3.5-7.8,7.8-7.8
			C1101.1,803.1,1104.6,806.6,1104.6,810.9z"/>
		<path class="st7" d="M1144.3,810.9c0,4.3-3.5,7.8-7.8,7.8c-4.3,0-7.8-3.5-7.8-7.8c0-4.3,3.5-7.8,7.8-7.8
			C1140.8,803.1,1144.3,806.6,1144.3,810.9z"/>
		<path class="st7" d="M1064.8,810.9c0,4.3-3.5,7.8-7.8,7.8c-4.3,0-7.8-3.5-7.8-7.8c0-4.3,3.5-7.8,7.8-7.8
			C1061.3,803.1,1064.8,806.6,1064.8,810.9z"/>
		<path class="st7" d="M1104.6,810.9c0,4.3-3.5,7.8-7.8,7.8c-4.3,0-7.8-3.5-7.8-7.8c0-4.3,3.5-7.8,7.8-7.8
			C1101.1,803.1,1104.6,806.6,1104.6,810.9z"/>
		<path class="st7" d="M1144.3,810.9c0,4.3-3.5,7.8-7.8,7.8c-4.3,0-7.8-3.5-7.8-7.8c0-4.3,3.5-7.8,7.8-7.8
			C1140.8,803.1,1144.3,806.6,1144.3,810.9z"/>
		<path class="st7" d="M1104.6,850.7c0,4.3-3.5,7.8-7.8,7.8c-4.3,0-7.8-3.5-7.8-7.8c0-4.3,3.5-7.8,7.8-7.8
			C1101.1,842.9,1104.6,846.4,1104.6,850.7z"/>
		<path class="st7" d="M1144.3,850.7c0,4.3-3.5,7.8-7.8,7.8c-4.3,0-7.8-3.5-7.8-7.8c0-4.3,3.5-7.8,7.8-7.8
			C1140.8,842.9,1144.3,846.4,1144.3,850.7z"/>
		<path class="st7" d="M1104.6,850.7c0,4.3-3.5,7.8-7.8,7.8c-4.3,0-7.8-3.5-7.8-7.8c0-4.3,3.5-7.8,7.8-7.8
			C1101.1,842.9,1104.6,846.4,1104.6,850.7z"/>
		<path class="st7" d="M1144.3,850.7c0,4.3-3.5,7.8-7.8,7.8c-4.3,0-7.8-3.5-7.8-7.8c0-4.3,3.5-7.8,7.8-7.8
			C1140.8,842.9,1144.3,846.4,1144.3,850.7z"/>
		<path class="st7" d="M1104.6,890.4c0,4.3-3.5,7.8-7.8,7.8c-4.3,0-7.8-3.5-7.8-7.8c0-4.3,3.5-7.8,7.8-7.8
			C1101.1,882.6,1104.6,886.1,1104.6,890.4z"/>
		<path class="st7" d="M1144.3,890.4c0,4.3-3.5,7.8-7.8,7.8c-4.3,0-7.8-3.5-7.8-7.8c0-4.3,3.5-7.8,7.8-7.8
			C1140.8,882.6,1144.3,886.1,1144.3,890.4z"/>
		<path class="st7" d="M1104.6,890.4c0,4.3-3.5,7.8-7.8,7.8c-4.3,0-7.8-3.5-7.8-7.8c0-4.3,3.5-7.8,7.8-7.8
			C1101.1,882.6,1104.6,886.1,1104.6,890.4z"/>
		<path class="st7" d="M1144.3,890.4c0,4.3-3.5,7.8-7.8,7.8c-4.3,0-7.8-3.5-7.8-7.8c0-4.3,3.5-7.8,7.8-7.8
			C1140.8,882.6,1144.3,886.1,1144.3,890.4z"/>
		<path class="st7" d="M1057,858.4c-4.3,0-7.8-3.5-7.8-7.8c0-4.3,3.5-7.8,7.8-7.8c4.3,0,7.8,3.5,7.8,7.8
			C1064.8,854.9,1061.3,858.4,1057,858.4z"/>
		<path class="st7" d="M1057,898.2c-4.3,0-7.8-3.5-7.8-7.8c0-4.3,3.5-7.8,7.8-7.8c4.3,0,7.8,3.5,7.8,7.8
			C1064.8,894.7,1061.3,898.2,1057,898.2z"/>
	</g>
</g>
<g>
	<path class="st8" d="M575.8,366.8l-76.3,86.4c1.5,3.2,3.2,6.2,5.2,9.1l80.7-91.5C582.4,369.3,579.2,367.9,575.8,366.8z"/>
	<path class="st8" d="M552,363.8l-58.3,66.1c0.2,4.3,0.9,8.6,2,12.7l69.2-78.4C560.5,363.7,556.2,363.5,552,363.8z"/>
	<path class="st8" d="M496,409c-0.4,1.5-0.8,2.9-1.1,4.4l40.8-46.3C517.2,373.6,501.9,388.7,496,409z"/>
	<path class="st8" d="M617,410.3l-69.2,78.4c4.3,0.6,8.6,0.7,12.9,0.4L619,423C618.8,418.7,618.1,414.4,617,410.3z"/>
	<path class="st8" d="M594,376.3l-82.8,93.8c2.3,2.4,4.8,4.6,7.4,6.6l82.8-93.8C599.2,380.5,596.7,378.3,594,376.3z"/>
	<path class="st8" d="M576.9,485.8c18.6-6.5,33.9-21.5,39.8-41.9c0.4-1.5,0.8-2.9,1.1-4.4L576.9,485.8z"/>
	<path class="st8" d="M607.8,390.6l-80.7,91.5c3.1,1.6,6.3,3,9.7,4.1l76.3-86.4C611.6,396.5,609.8,393.5,607.8,390.6z"/>
</g>
<g>
	<path class="st8" d="M1201.5,479.8l-76.3,86.4c1.5,3.2,3.2,6.2,5.2,9.1l80.7-91.5C1208.1,482.3,1204.9,480.9,1201.5,479.8z"/>
	<path class="st8" d="M1177.7,476.8l-58.3,66.1c0.2,4.3,0.9,8.6,2,12.7l69.2-78.4C1186.2,476.7,1181.9,476.5,1177.7,476.8z"/>
	<path class="st8" d="M1121.7,522c-0.4,1.5-0.8,2.9-1.1,4.4l40.8-46.3C1142.9,486.6,1127.6,501.7,1121.7,522z"/>
	<path class="st8" d="M1242.7,523.3l-69.2,78.4c4.3,0.6,8.6,0.7,12.9,0.4l58.3-66.1C1244.5,531.7,1243.8,527.4,1242.7,523.3z"/>
	<path class="st8" d="M1219.7,489.3l-82.8,93.8c2.3,2.4,4.8,4.6,7.4,6.6l82.8-93.8C1224.8,493.5,1222.4,491.3,1219.7,489.3z"/>
	<path class="st8" d="M1202.6,598.8c18.6-6.5,33.9-21.5,39.8-41.9c0.4-1.5,0.8-2.9,1.1-4.4L1202.6,598.8z"/>
	<path class="st8" d="M1233.5,503.6l-80.7,91.5c3.1,1.6,6.3,3,9.7,4.1l76.3-86.4C1237.3,509.5,1235.5,506.5,1233.5,503.6z"/>
</g>
<path class="st8" d="M225,413.9c0,7.3-5.9,13.2-13.2,13.2c-7.3,0-13.2-5.9-13.2-13.2c0-7.3,5.9-13.2,13.2-13.2
	C219.1,400.7,225,406.6,225,413.9z"/>
<path class="st8" d="M1304.5,97.8c0,7.3-5.9,13.2-13.2,13.2c-7.3,0-13.2-5.9-13.2-13.2c0-7.3,5.9-13.2,13.2-13.2
	C1298.6,84.7,1304.5,90.6,1304.5,97.8z"/>
<circle class="st8" cx="1113.8" cy="433.9" r="5.6"/>
<circle class="st8" cx="186" cy="86.3" r="5.6"/>
<circle class="st8" cx="1343.7" cy="480.8" r="5.6"/>
<circle class="st8" cx="1343.7" cy="831.3" r="5.6"/>
<circle class="st8" cx="1102.6" cy="117.6" r="5.6"/>
<circle class="st8" cx="401.2" cy="796.6" r="5.6"/>
<circle class="st8" cx="681.9" cy="503.6" r="5.6"/>
<circle class="st8" cx="613.1" cy="251.9" r="5.6"/>
<circle class="st8" cx="409.7" cy="112" r="5.6"/>
<circle class="st8" cx="409.7" cy="403.3" r="5.6"/>
<circle class="st8" cx="981.7" cy="589.7" r="9.7"/>
<circle class="st8" cx="504" cy="713.8" r="9.7"/>
<g>
</g>
<g>
</g>
<g>
</g>
<g>
</g>
<g>
</g>
<g>
</g>
<g>
</g>
<g>
</g>
<g>
</g>
<g>
</g>
<g>
</g>
<g>
</g>
<g>
</g>
<g>
</g>
<g>
</g>
</svg>
