<?xml version="1.0" encoding="utf-8"?>
<!-- Generator: Adobe Illustrator 22.0.1, SVG Export Plug-In . SVG Version: 6.00 Build 0)  -->
<svg version="1.1" id="Layer_1" xmlns="http://www.w3.org/2000/svg" xmlns:xlink="http://www.w3.org/1999/xlink" x="0px" y="0px"
	 viewBox="0 0 673.3 493.7" style="enable-background:new 0 0 673.3 493.7;" xml:space="preserve">
<style type="text/css">
	.st0{fill:#F2F2F2;}
	.st1{fill:#180707;}
	.st2{fill:#606060;}
	.st3{fill:#FFFFFF;}
	.st4{fill:#F37B35;}
	.st5{fill:#FFD474;}
	.st6{fill:#FFBDA1;}
	.st7{fill:#1E1A1E;}
	.st8{fill:#F27424;}
	.st9{fill:#EF4231;}
	.st10{clip-path:url(#SVGID_2_);fill:#072042;}
</style>
<path class="st0" d="M517.1,332.6H77.7c-5.1,0-9.3-4.2-9.3-9.3v-37h458v37C526.4,328.5,522.3,332.6,517.1,332.6z"/>
<rect x="251.4" y="332.6" class="st1" width="94" height="40.5"/>
<path class="st2" d="M526.4,287.1h-458v-259c0-4.7,3.8-8.6,8.6-8.6h440.8c4.7,0,8.6,3.8,8.6,8.6V287.1z"/>
<rect x="87.1" y="38.8" class="st3" width="423.6" height="231.8"/>
<path class="st3" d="M307.8,307.4c0,5.7-4.6,10.3-10.3,10.3c-5.7,0-10.3-4.6-10.3-10.3c0-5.7,4.6-10.3,10.3-10.3
	C303.2,297.1,307.8,301.7,307.8,307.4z"/>
<path class="st0" d="M385.5,386.7H209.4l0,0c0-7.5,6.1-13.6,13.6-13.6h149C379.5,373.1,385.5,379.2,385.5,386.7L385.5,386.7z"/>
<rect x="132.3" y="79.8" class="st4" width="147" height="147"/>
<path class="st5" d="M262.6,143.5c0,12.5-10.1,22.6-22.6,22.6c-12.5,0-22.6-10.1-22.6-22.6c0-12.5,10.1-22.6,22.6-22.6
	C252.5,120.9,262.6,131,262.6,143.5z"/>
<polygon class="st3" points="211.2,180.8 237.4,149.4 279.3,187.2 279.3,226.8 211.2,226.8 "/>
<polygon class="st2" points="132.3,180.2 161.9,134.7 256.3,226.8 132.3,226.8 "/>
<path class="st2" d="M455.7,119.1H301.9c-0.7,0-1.2-0.5-1.2-1.2v-5.7c0-0.7,0.5-1.2,1.2-1.2h153.8c0.7,0,1.2,0.5,1.2,1.2v5.7
	C456.9,118.6,456.4,119.1,455.7,119.1z"/>
<path class="st2" d="M413.3,161.1H301.9c-0.7,0-1.2-0.5-1.2-1.2v-5.7c0-0.7,0.5-1.2,1.2-1.2h111.4c0.7,0,1.2,0.5,1.2,1.2v5.7
	C414.5,160.6,414,161.1,413.3,161.1z"/>
<path class="st2" d="M452.9,182.1H304.6c-2.1,0-3.8-1.7-3.8-3.8v-0.4c0-2.1,1.7-3.8,3.8-3.8h148.3c2.2,0,4,1.8,4,4l0,0
	C456.9,180.3,455.1,182.1,452.9,182.1z"/>
<path class="st2" d="M346.1,203.1h-44.2c-0.7,0-1.2-0.5-1.2-1.2v-5.7c0-0.7,0.5-1.2,1.2-1.2h44.2c0.7,0,1.2,0.5,1.2,1.2v5.7
	C347.3,202.6,346.7,203.1,346.1,203.1z"/>
<path class="st2" d="M384.6,140.1h-82.7c-0.7,0-1.2-0.5-1.2-1.2v-5.7c0-0.7,0.5-1.2,1.2-1.2h82.7c0.7,0,1.2,0.5,1.2,1.2v5.7
	C385.8,139.6,385.3,140.1,384.6,140.1z"/>
<g>
	<g>
		<path class="st6" d="M415.9,440.1c0.2-0.9,6.5-22.4,6.5-22.4l11.5,0.5l-6.4,22.4L415.9,440.1z"/>
		<path class="st7" d="M447.7,446.4l-32.1-1.3l0.4-9.8l22.1,0.9C443.7,436.4,447.9,441,447.7,446.4L447.7,446.4z"/>
	</g>
	<g>
		<path class="st6" d="M279.3,424.8c0.8-0.3,22.3-7.1,22.3-7.1l6,9.8l-22.2,7.2L279.3,424.8z"/>
		<path class="st7" d="M282.5,423.5l6.3,13.4v6.9c0,0,6.5,1.1,7.8,5.5h-14.8l-7.6-23.7L282.5,423.5z"/>
		<path class="st6" d="M460.8,291.8l8.5-8.5l1.2-11.4c0.1-1.1,0.3-2,1.4-2.1l0.6,0c1,0,1.9,0.7,2.1,2l1.2,24c0.1,1.4-1,2.7-2.4,3
			l-11.2,1.8L460.8,291.8z"/>
		<path class="st8" d="M424.9,315.8c-0.1,0-0.2,0-0.4,0l-38.5-1.6l0.7-16.5l37,1.6l39.5-12.3l1.5,15.6l-37.1,12.8
			C426.8,315.7,425.9,315.8,424.9,315.8z"/>
		<path class="st9" d="M385.7,359.6l-27.9,54.5l-0.8,1.5c-1.3,2.5-3.6,4.2-6.2,4.8l-49,13.1l-5.4-16.8l47.5-17.9l-7,6.4l18.8-59.2
			L385.7,359.6z"/>
		<path class="st9" d="M373,339.6l71.8,8.1l1.4,0.2c6.1,0.7,10.5,6.2,9.8,12.3c-0.1,0.7-0.3,1.5-0.5,2.2l-18.4,58.4l-19.1-1.3
			l15.4-63.4l10.7,14.7l-72.2-3.9L373,339.6z"/>
		<path class="st8" d="M389.2,294.4l-3.7-2.5l-3.3,2.5c-6.1,4.6-10.7,10.9-13.2,18.2l-3,6.6l-15.7,34.4l33,3.4l14-22.2
			C405.9,321.3,402.3,303.5,389.2,294.4z"/>
		<path class="st6" d="M458.6,313.9l8.5-8.5l2.5-11.4c0.1-1.1,0.3-2,1.4-2.1l0.6,0c1,0,1.9,0.7,2.1,2l0,24c0.1,1.4-1,2.7-2.4,3
			l-11.2,1.8L458.6,313.9z"/>
		<g>
			<polygon class="st6" points="388.2,286.9 384,294.6 392.7,302.8 398.5,287 			"/>
			<g>
				<path class="st6" d="M411.8,273.3l-3.4-1.7l-2.3,4.5l3.4,1l2.4-1.3C412.9,275.4,412.8,273.9,411.8,273.3z"/>
				<g>
					<defs>
						<path id="SVGID_1_" d="M409.3,280.6c-2.5,8.1-11.1,12.7-19.2,10.2c-8.1-2.5-12.7-11.1-10.2-19.2c2.5-8.1,11.1-12.7,19.2-10.2
							C407.2,263.9,411.7,272.5,409.3,280.6z"/>
					</defs>
					<use xlink:href="#SVGID_1_"  style="overflow:visible;fill:#FFBDA1;"/>
					<clipPath id="SVGID_2_">
						<use xlink:href="#SVGID_1_"  style="overflow:visible;"/>
					</clipPath>
					<polygon class="st10" points="400.9,257 380.6,292.4 375.3,266 					"/>
				</g>
				<path class="st6" d="M391.9,276.7c-0.7,2.3-3.1,3.6-5.4,2.9c-2.3-0.7-3.6-3.1-2.9-5.4c0.7-2.3,3.1-3.6,5.4-2.9
					C391.3,272,392.6,274.4,391.9,276.7z"/>
			</g>
		</g>
		<path class="st8" d="M419.8,338.4c-1.4,0-2.7-0.3-3.9-1L373,314.1l7.9-14.5l40.3,22l40.7-12.4l2.8,16.3l-43.5,12.9
			C420.7,338.4,420.3,338.4,419.8,338.4z"/>
	</g>
</g>
<path class="st2" d="M111.2,201.9H27.4c-7.9,0-14.3,6.4-14.3,14.3v180.1c0,7.9,6.4,14.3,14.3,14.3h83.8c7.9,0,14.3-6.4,14.3-14.3
	V216.2C125.5,208.3,119.1,201.9,111.2,201.9z"/>
<path class="st3" d="M66.6,402.5c-4.8,0-8.7-3.9-8.7-8.7s3.9-8.7,8.7-8.7s8.7,3.9,8.7,8.7S71.4,402.5,66.6,402.5z"/>
<rect x="21.4" y="220.2" class="st3" width="94.6" height="157.1"/>
<rect x="36.5" y="235.4" class="st4" width="64.1" height="64.1"/>
<circle class="st5" cx="83.5" cy="263.2" r="9.9"/>
<polygon class="st3" points="70.9,279.4 82.4,265.8 100.6,282.2 100.6,299.5 70.9,299.5 "/>
<polygon class="st2" points="36.5,279.2 49.4,259.4 90.6,299.5 36.5,299.5 "/>
<path class="st2" d="M70,320.1H38.5c-0.7,0-1.2-0.5-1.2-1.2v-5.7c0-0.7,0.5-1.2,1.2-1.2H70c0.7,0,1.2,0.5,1.2,1.2v5.7
	C71.2,319.6,70.7,320.1,70,320.1z"/>
<path class="st2" d="M70,357H38.5c-0.7,0-1.2-0.5-1.2-1.2v-5.7c0-0.7,0.5-1.2,1.2-1.2H70c0.7,0,1.2,0.5,1.2,1.2v5.7
	C71.2,356.5,70.7,357,70,357z"/>
<path class="st2" d="M101.4,338.6H38.5c-0.7,0-1.2-0.5-1.2-1.2v-5.7c0-0.7,0.5-1.2,1.2-1.2h62.9c0.7,0,1.2,0.5,1.2,1.2v5.7
	C102.5,338.1,102,338.6,101.4,338.6z"/>
<path class="st2" d="M642,146.2H491.9c-10,0-18.1,8.1-18.1,18.1v228.1c0,10,8.1,18.1,18.1,18.1H642c10,0,18.1-8.1,18.1-18.1V164.3
	C660.1,154.3,652,146.2,642,146.2z"/>
<path class="st3" d="M564.1,400.4c-6.1,0-11-4.9-11-11c0-6.1,4.9-11,11-11c6.1,0,11,4.9,11,11C575.1,395.5,570.2,400.4,564.1,400.4z
	"/>
<rect x="484.3" y="169.4" class="st3" width="163.8" height="199"/>
<rect x="508.7" y="191.5" class="st4" width="113.4" height="113.4"/>
<path class="st5" d="M609.3,240.6c0,9.6-7.8,17.4-17.4,17.4c-9.6,0-17.4-7.8-17.4-17.4c0-9.6,7.8-17.4,17.4-17.4
	C601.5,223.1,609.3,230.9,609.3,240.6z"/>
<polygon class="st3" points="569.6,269.3 589.8,245.1 622.1,274.3 622.1,304.8 569.6,304.8 "/>
<polygon class="st2" points="508.7,268.9 531.6,233.8 604.4,304.8 508.7,304.8 "/>
<path class="st2" d="M541.5,327.4h-31.6c-0.7,0-1.2-0.5-1.2-1.2v-5.7c0-0.7,0.5-1.2,1.2-1.2h31.6c0.7,0,1.2,0.5,1.2,1.2v5.7
	C542.7,326.9,542.1,327.4,541.5,327.4z"/>
<path class="st2" d="M622.8,345.9H509.9c-0.7,0-1.2-0.5-1.2-1.2V339c0-0.7,0.5-1.2,1.2-1.2h112.9c0.7,0,1.2,0.5,1.2,1.2v5.7
	C624,345.4,623.5,345.9,622.8,345.9z"/>
<g>
</g>
<g>
</g>
<g>
</g>
<g>
</g>
<g>
</g>
<g>
</g>
<g>
</g>
<g>
</g>
<g>
</g>
<g>
</g>
<g>
</g>
<g>
</g>
<g>
</g>
<g>
</g>
<g>
</g>
</svg>
