<?xml version="1.0" encoding="utf-8"?>
<!-- Generator: Adobe Illustrator 22.0.1, SVG Export Plug-In . SVG Version: 6.00 Build 0)  -->
<svg version="1.1" id="Layer_1" xmlns="http://www.w3.org/2000/svg" xmlns:xlink="http://www.w3.org/1999/xlink" x="0px" y="0px"
	 viewBox="0 0 51.5 32.6" style="enable-background:new 0 0 51.5 32.6;" xml:space="preserve">
<style type="text/css">
	.st0{fill:#F2F2F2;}
	.st1{fill:#DDDDDD;}
	.st2{fill:#FFFFFF;}
	.st3{fill:#E13B21;}
	.st4{fill:#FFD474;}
</style>
<g>
	<g>
		<path class="st0" d="M38.2,26.5H4.1c-0.4,0-0.7-0.3-0.7-0.7v-2.9h35.5v2.9C38.9,26.2,38.6,26.5,38.2,26.5z"/>
		<rect x="17.6" y="26.5" class="st1" width="7.3" height="3.1"/>
		<path class="st1" d="M38.9,22.9H3.4V2.9c0-0.4,0.3-0.7,0.7-0.7h34.2c0.4,0,0.7,0.3,0.7,0.7L38.9,22.9L38.9,22.9z"/>
		<rect x="4.8" y="3.7" class="st2" width="32.8" height="18"/>
		<path class="st2" d="M22,24.5c0,0.4-0.4,0.8-0.8,0.8s-0.8-0.4-0.8-0.8c0-0.4,0.4-0.8,0.8-0.8S22,24.1,22,24.5z"/>
		<path class="st0" d="M28,30.7H14.3l0,0c0-0.6,0.5-1,1-1h11.5C27.5,29.6,28,30.1,28,30.7L28,30.7z"/>
		<rect x="8.3" y="6.9" class="st3" width="11.4" height="11.4"/>
		<path class="st4" d="M18.4,11.8c0,1-0.8,1.7-1.7,1.7c-1,0-1.7-0.8-1.7-1.7s0.8-1.7,1.7-1.7C17.7,10.1,18.4,10.8,18.4,11.8z"/>
		<polygon class="st2" points="14.5,14.7 16.5,12.3 19.7,15.2 19.7,18.3 14.5,18.3 		"/>
		<polygon class="st1" points="8.3,14.7 10.6,11.1 18,18.3 8.3,18.3 		"/>
		<path class="st1" d="M33.4,9.9H21.5c-0.1,0-0.1,0-0.1-0.1V9.4c0-0.1,0-0.1,0.1-0.1h11.9c0.1,0,0.1,0,0.1,0.1L33.4,9.9
			C33.5,9.9,33.5,9.9,33.4,9.9z"/>
		<path class="st1" d="M30.1,13.2h-8.6c-0.1,0-0.1,0-0.1-0.1v-0.4c0-0.1,0-0.1,0.1-0.1h8.6c0.1,0,0.1,0,0.1,0.1L30.1,13.2
			C30.2,13.1,30.2,13.2,30.1,13.2z"/>
		<path class="st1" d="M33.2,14.8H21.7c-0.2,0-0.3-0.1-0.3-0.3v0c0-0.2,0.1-0.3,0.3-0.3h11.5c0.2,0,0.3,0.1,0.3,0.3l0,0
			C33.5,14.7,33.4,14.8,33.2,14.8z"/>
		<path class="st1" d="M24.9,16.4h-3.4c-0.1,0-0.1,0-0.1-0.1v-0.4c0-0.1,0-0.1,0.1-0.1h3.4c0.1,0,0.1,0,0.1,0.1L24.9,16.4
			C25,16.4,25,16.4,24.9,16.4z"/>
		<path class="st1" d="M27.9,11.5h-6.4c-0.1,0-0.1,0-0.1-0.1V11c0-0.1,0-0.1,0.1-0.1h6.4c0.1,0,0.1,0,0.1,0.1L27.9,11.5
			C28,11.5,28,11.5,27.9,11.5z"/>
	</g>
	<g>
		<path class="st1" d="M34.8,13.1h-7.1c-0.7,0-1.2,0.5-1.2,1.2v15.2c0,0.7,0.5,1.2,1.2,1.2h7.1c0.7,0,1.2-0.5,1.2-1.2V14.3
			C36,13.6,35.4,13.1,34.8,13.1z"/>
		<path class="st2" d="M31,30c-0.4,0-0.7-0.3-0.7-0.7c0-0.4,0.3-0.7,0.7-0.7c0.4,0,0.7,0.3,0.7,0.7C31.7,29.7,31.4,30,31,30z"/>
		<rect x="27.1" y="14.6" class="st2" width="8" height="13.3"/>
		<rect x="28.4" y="15.9" class="st3" width="5.4" height="5.4"/>
		<circle class="st4" cx="32.4" cy="18.3" r="0.8"/>
		<polygon class="st2" points="31.3,19.6 32.3,18.5 33.9,19.9 33.9,21.3 31.3,21.3 		"/>
		<polygon class="st1" points="28.4,19.6 29.5,17.9 33,21.3 28.4,21.3 		"/>
		<path class="st1" d="M31.3,23.1h-2.7c-0.1,0-0.1,0-0.1-0.1v-0.5c0-0.1,0-0.1,0.1-0.1h2.7c0.1,0,0.1,0,0.1,0.1V23
			C31.4,23,31.3,23.1,31.3,23.1z"/>
		<path class="st1" d="M31.3,26.2h-2.7c-0.1,0-0.1,0-0.1-0.1v-0.5c0-0.1,0-0.1,0.1-0.1h2.7c0.1,0,0.1,0,0.1,0.1v0.5
			C31.4,26.2,31.3,26.2,31.3,26.2z"/>
		<path class="st1" d="M33.9,24.6h-5.3c-0.1,0-0.1,0-0.1-0.1v-0.5c0-0.1,0-0.1,0.1-0.1h5.3c0.1,0,0.1,0,0.1,0.1v0.5
			C34,24.6,34,24.6,33.9,24.6z"/>
	</g>
	<g>
		<g>
			<path class="st1" d="M49.6,10.3H38c-0.8,0-1.4,0.6-1.4,1.4v17.7c0,0.8,0.6,1.4,1.4,1.4h11.6c0.8,0,1.4-0.6,1.4-1.4V11.7
				C51,10.9,50.4,10.3,49.6,10.3z"/>
			<path class="st2" d="M43.6,30c-0.5,0-0.9-0.4-0.9-0.9c0-0.5,0.4-0.9,0.9-0.9c0.5,0,0.9,0.4,0.9,0.9C44.5,29.6,44.1,30,43.6,30z"
				/>
		</g>
		<rect x="37.4" y="12.1" class="st2" width="12.7" height="15.4"/>
		<rect x="39.3" y="13.8" class="st3" width="8.8" height="8.8"/>
		<path class="st4" d="M47.1,17.6c0,0.7-0.6,1.3-1.3,1.3c-0.7,0-1.3-0.6-1.3-1.3s0.6-1.3,1.3-1.3C46.5,16.3,47.1,16.9,47.1,17.6z"/>
		<polygon class="st2" points="44,19.9 45.6,18 48.1,20.2 48.1,22.6 44,22.6 		"/>
		<polygon class="st1" points="39.3,19.8 41.1,17.1 46.7,22.6 39.3,22.6 		"/>
		<path class="st1" d="M41.8,24.3h-2.4c-0.1,0-0.1,0-0.1-0.1v-0.4c0-0.1,0-0.1,0.1-0.1h2.4c0.1,0,0.1,0,0.1,0.1L41.8,24.3
			C41.9,24.3,41.9,24.3,41.8,24.3z"/>
		<path class="st1" d="M48.1,25.8h-8.7c-0.1,0-0.1,0-0.1-0.1v-0.4c0-0.1,0-0.1,0.1-0.1h8.7c0.1,0,0.1,0,0.1,0.1L48.1,25.8
			C48.2,25.7,48.2,25.8,48.1,25.8z"/>
	</g>
</g>
</svg>
