<?xml version="1.0" encoding="iso-8859-1"?>
<!-- Generator: Adobe Illustrator 19.0.0, SVG Export Plug-In . SVG Version: 6.00 Build 0)  -->
<svg version="1.1" id="Layer_1" xmlns="http://www.w3.org/2000/svg" xmlns:xlink="http://www.w3.org/1999/xlink" x="0px" y="0px"
	 viewBox="0 0 512 512" style="enable-background:new 0 0 512 512;" xml:space="preserve">
<g>
	<g>
		<path d="M483.969,21.645H105.312c-4.199,0-7.604,3.405-7.604,7.604c0,4.199,3.405,7.604,7.604,7.604h378.656
			c7.072,0,12.823,5.753,12.823,12.824v42.228H193.096c-4.199,0-7.604,3.405-7.604,7.604s3.405,7.604,7.604,7.604h303.696v198.717
			H17.27c-0.716,0-1.405,0.105-2.062,0.291V106.824c0.657,0.185,1.346,0.291,2.062,0.291h145.481c4.199,0,7.604-3.405,7.604-7.604
			c0-4.199-3.405-7.604-7.604-7.604H17.27c-0.716,0-1.405,0.105-2.062,0.291v-42.52c0-7.072,5.753-12.824,12.824-12.824h40.659
			c4.199,0,7.604-3.405,7.604-7.604c0-4.199-3.405-7.604-7.604-7.604H28.032C12.575,21.645,0,34.22,0,49.678V358.2
			c0,15.457,12.575,28.032,28.032,28.032h172.679l-20.123,94.942c-0.475,2.244,0.086,4.582,1.531,6.364
			c1.444,1.781,3.614,2.817,5.908,2.817h144.85c2.293,0,4.464-1.035,5.908-2.817c1.444-1.782,2.006-4.12,1.531-6.364l-20.122-94.942
			h163.775c15.456,0,28.031-12.575,28.031-28.032V49.678C512,34.22,499.425,21.645,483.969,21.645z M323.493,475.146H197.411
			l18.846-88.915h88.39L323.493,475.146z M496.792,358.2c0,7.071-5.753,12.824-12.823,12.824H310.809H210.096H28.032
			c-7.072,0-12.824-5.753-12.824-12.824v-37.451c0.657,0.185,1.346,0.291,2.062,0.291h479.522V358.2z"/>
	</g>
</g>
<g>
	<g>
		<path d="M443.457,179.381c-1.397-8.058-5.912-15-12.712-19.545c-6.799-4.546-14.939-6.065-22.921-4.275l-190.326,42.66
			c-3.483-5.349-7.98-10.045-13.356-13.831c-11.11-7.825-24.603-10.852-37.99-8.533c-25.769,4.471-62.211,52.094-66.281,57.51
			c-0.019,0.026-0.036,0.055-0.055,0.08c-0.114,0.156-0.222,0.316-0.323,0.481c-0.034,0.055-0.068,0.109-0.1,0.164
			c-0.095,0.162-0.184,0.329-0.267,0.5c-0.03,0.062-0.061,0.124-0.09,0.187c-0.074,0.162-0.14,0.327-0.203,0.495
			c-0.029,0.077-0.058,0.154-0.084,0.232c-0.051,0.151-0.094,0.305-0.136,0.46c-0.026,0.099-0.054,0.199-0.076,0.299
			c-0.03,0.136-0.055,0.274-0.078,0.413c-0.02,0.122-0.041,0.243-0.055,0.366c-0.005,0.047-0.016,0.092-0.021,0.139
			c-0.008,0.086-0.007,0.17-0.012,0.255c-0.008,0.125-0.016,0.248-0.018,0.374c-0.004,0.147,0,0.29,0.006,0.433
			c0.004,0.108,0.008,0.216,0.017,0.324c0.013,0.161,0.034,0.32,0.058,0.479c0.009,0.063,0.012,0.126,0.022,0.189
			c0.005,0.029,0.014,0.057,0.019,0.085c0.031,0.17,0.072,0.338,0.115,0.504c0.02,0.08,0.039,0.16,0.062,0.239
			c0.049,0.168,0.107,0.332,0.167,0.496c0.027,0.076,0.053,0.152,0.083,0.227c0.065,0.16,0.139,0.314,0.214,0.469
			c0.035,0.074,0.068,0.149,0.106,0.222c0.079,0.15,0.167,0.293,0.255,0.437c0.045,0.072,0.084,0.146,0.131,0.216
			c0.099,0.149,0.207,0.291,0.316,0.433c0.044,0.058,0.083,0.118,0.13,0.174c0.319,0.392,0.677,0.751,1.07,1.074
			c0.034,0.028,0.071,0.053,0.105,0.079c0.166,0.132,0.336,0.259,0.512,0.377c0.008,0.005,0.014,0.011,0.022,0.016
			c5.294,3.49,49.747,32.243,76.547,32.243c1.831,0,3.584-0.135,5.233-0.421c20.622-3.578,36.198-19.179,40.789-38.349
			l193.599-23.946c8.117-1.004,15.271-5.176,20.141-11.746C442.942,195.496,444.854,187.439,443.457,179.381z M168.748,190.842
			c9.386-1.628,18.846,0.496,26.634,5.982c0.092,0.065,0.179,0.136,0.272,0.201c-11.921,28.665-52.204,33.396-74.25,33.754
			C136.191,213.249,156.65,192.941,168.748,190.842z M180.942,261.124c-9.993,1.731-29.519-6.298-47.181-15.635
			c24.333-1.94,57.617-9.652,72.721-35.993c1.674,3.221,2.866,6.712,3.504,10.39C213.348,239.263,200.319,257.762,180.942,261.124z
			 M425.853,193.009c-2.368,3.194-5.846,5.221-9.792,5.71l-190.479,23.56c-0.122-1.657-0.322-3.322-0.612-4.992
			c-0.289-1.664-0.657-3.302-1.099-4.909L411.148,170.4c3.878-0.87,7.837-0.132,11.143,2.078c3.305,2.21,5.5,5.584,6.179,9.502
			C429.151,185.898,428.222,189.815,425.853,193.009z"/>
	</g>
</g>
<g>
</g>
<g>
</g>
<g>
</g>
<g>
</g>
<g>
</g>
<g>
</g>
<g>
</g>
<g>
</g>
<g>
</g>
<g>
</g>
<g>
</g>
<g>
</g>
<g>
</g>
<g>
</g>
<g>
</g>
</svg>
