<?xml version="1.0" encoding="utf-8"?>
<!-- Generator: Adobe Illustrator 22.0.1, SVG Export Plug-In . SVG Version: 6.00 Build 0)  -->
<svg version="1.1" id="Layer_1" xmlns="http://www.w3.org/2000/svg" xmlns:xlink="http://www.w3.org/1999/xlink" x="0px" y="0px"
	 viewBox="0 0 438.1 121.5" style="enable-background:new 0 0 438.1 121.5;" xml:space="preserve">
<style type="text/css">
	.st0{fill:#FFFFFF;}
	.st1{clip-path:url(#SVGID_2_);fill:#FFFFFF;}
	.st2{clip-path:url(#SVGID_4_);fill:#FFFFFF;}
	.st3{clip-path:url(#SVGID_6_);fill:#FFFFFF;}
	.st4{clip-path:url(#SVGID_8_);fill:#FFFFFF;}
	.st5{clip-path:url(#SVGID_10_);fill:#FFFFFF;}
	.st6{clip-path:url(#SVGID_14_);fill:#FFFFFF;}
	.st7{clip-path:url(#SVGID_18_);fill:#FFFFFF;}
	.st8{clip-path:url(#SVGID_22_);fill:#FFFFFF;}
	.st9{clip-path:url(#SVGID_26_);fill:#FFFFFF;}
	.st10{fill:#EFEFEF;}
	.st11{clip-path:url(#SVGID_31_);fill:url(#SVGID_32_);}
	.st12{clip-path:url(#SVGID_36_);fill:url(#SVGID_37_);}
</style>
<g>
	<g>
		<g>
			<g>
				<path id="SVGID_11_" class="st0" d="M150.1,3.7v7.1h22.4c2,0,3.4,0.5,4.3,1.7c0.9,1,1.3,2.4,1.3,3.8c0,0.7-0.1,1.4-0.3,2.2
					c-0.2,0.7-0.5,1.3-1,1.9c-0.4,0.5-1,0.9-1.8,1.2c-0.7,0.3-1.5,0.5-2.6,0.5h-15.9c-2.3,0-3.9,0.5-5,1.5c-1,1-1.5,2.7-1.5,5v16.2
					h7.1V29.7c0-0.7,0.3-1,1-1H169l9.3,15.8h7.9l-9.5-16.3c1.5-0.4,2.9-1.1,4-2c1.1-0.8,2-1.9,2.7-2.9c0.7-1.1,1.2-2.3,1.5-3.6
					c0.3-1.2,0.5-2.6,0.5-3.8c0-1.7-0.2-3.2-0.7-4.6c-0.5-1.4-1.3-2.8-2.4-3.9s-2.5-2-4.1-2.7c-1.7-0.6-3.6-1-5.9-1h-22.3V3.7z"/>
			</g>
			<g>
				<defs>
					<path id="SVGID_1_" d="M150.1,3.7v7.1h22.4c2,0,3.4,0.5,4.3,1.7c0.9,1,1.3,2.4,1.3,3.8c0,0.7-0.1,1.4-0.3,2.2
						c-0.2,0.7-0.5,1.3-1,1.9c-0.4,0.5-1,0.9-1.8,1.2c-0.7,0.3-1.5,0.5-2.6,0.5h-15.9c-2.3,0-3.9,0.5-5,1.5c-1,1-1.5,2.7-1.5,5v16.2
						h7.1V29.7c0-0.7,0.3-1,1-1H169l9.3,15.8h7.9l-9.5-16.3c1.5-0.4,2.9-1.1,4-2c1.1-0.8,2-1.9,2.7-2.9c0.7-1.1,1.2-2.3,1.5-3.6
						c0.3-1.2,0.5-2.6,0.5-3.8c0-1.7-0.2-3.2-0.7-4.6c-0.5-1.4-1.3-2.8-2.4-3.9s-2.5-2-4.1-2.7c-1.7-0.6-3.6-1-5.9-1h-22.3V3.7z"/>
				</defs>
				<clipPath id="SVGID_2_">
					<use xlink:href="#SVGID_1_"  style="overflow:visible;"/>
				</clipPath>
				<rect x="150.1" y="3.7" class="st1" width="36.1" height="40.8"/>
			</g>
		</g>
		<g>
			<g>
				<rect id="SVGID_13_" x="191" y="3.7" class="st0" width="7.1" height="40.8"/>
			</g>
			<g>
				<defs>
					<rect id="SVGID_3_" x="191" y="3.7" width="7.1" height="40.8"/>
				</defs>
				<clipPath id="SVGID_4_">
					<use xlink:href="#SVGID_3_"  style="overflow:visible;"/>
				</clipPath>
				<rect x="191" y="3.7" class="st2" width="7.1" height="40.8"/>
			</g>
		</g>
		<g>
			<g>
				<path id="SVGID_15_" class="st0" d="M205.5,3.7v7.1h26.3c1,0,1.9,0.2,2.4,0.7c0.5,0.5,0.7,1.1,0.7,2c0,1.4-0.7,2.5-2.2,3
					L210.6,26c-2.3,0.9-3.9,2.2-5,3.7c-1.1,1.5-1.7,3.5-1.7,5.9c0,2.9,0.8,5.1,2.5,6.6s4.1,2.4,7.4,2.4h27.4v-7.1h-26.9
					c-1,0-1.8-0.2-2.3-0.7c-0.5-0.5-0.7-1.1-0.7-2c0-0.7,0.2-1.3,0.5-1.9c0.4-0.5,0.8-0.9,1.5-1.2l22.3-9.5c2.2-0.9,3.8-2.2,4.8-3.7
					c1.1-1.5,1.7-3.5,1.7-5.9c0-2.9-0.8-5.1-2.5-6.6c-1.7-1.5-4.1-2.4-7.4-2.4h-26.8V3.7z"/>
			</g>
			<g>
				<defs>
					<path id="SVGID_5_" d="M205.5,3.7v7.1h26.3c1,0,1.9,0.2,2.4,0.7c0.5,0.5,0.7,1.1,0.7,2c0,1.4-0.7,2.5-2.2,3L210.6,26
						c-2.3,0.9-3.9,2.2-5,3.7c-1.1,1.5-1.7,3.5-1.7,5.9c0,2.9,0.8,5.1,2.5,6.6s4.1,2.4,7.4,2.4h27.4v-7.1h-26.9
						c-1,0-1.8-0.2-2.3-0.7c-0.5-0.5-0.7-1.1-0.7-2c0-0.7,0.2-1.3,0.5-1.9c0.4-0.5,0.8-0.9,1.5-1.2l22.3-9.5
						c2.2-0.9,3.8-2.2,4.8-3.7c1.1-1.5,1.7-3.5,1.7-5.9c0-2.9-0.8-5.1-2.5-6.6c-1.7-1.5-4.1-2.4-7.4-2.4h-26.8V3.7z"/>
				</defs>
				<clipPath id="SVGID_6_">
					<use xlink:href="#SVGID_5_"  style="overflow:visible;"/>
				</clipPath>
				<rect x="204.1" y="3.7" class="st3" width="38.2" height="40.8"/>
			</g>
		</g>
		<g>
			<g>
				<rect id="SVGID_17_" x="248.1" y="3.7" class="st0" width="7.1" height="40.8"/>
			</g>
			<g>
				<defs>
					<rect id="SVGID_7_" x="248.1" y="3.7" width="7.1" height="40.8"/>
				</defs>
				<clipPath id="SVGID_8_">
					<use xlink:href="#SVGID_7_"  style="overflow:visible;"/>
				</clipPath>
				<rect x="248.1" y="3.7" class="st4" width="7.1" height="40.8"/>
			</g>
		</g>
		<g>
			<g>
				<path id="SVGID_19_" class="st0" d="M262.2,3.7v26.7c0,2.1,0.3,3.9,0.8,5.7c0.5,1.8,1.4,3.2,2.7,4.4c1.2,1.2,2.8,2.3,4.6,2.9
					c2,0.7,4.2,1,6.9,1h16.3v-7.1h-15.9c-1.7,0-3-0.2-4-0.5c-1-0.4-2-0.8-2.6-1.4c-0.6-0.6-1.1-1.3-1.3-2.3
					c-0.3-0.8-0.4-1.8-0.4-2.8V3.7H262.2z"/>
			</g>
			<g>
				<defs>
					<path id="SVGID_9_" d="M262.2,3.7v26.7c0,2.1,0.3,3.9,0.8,5.7c0.5,1.8,1.4,3.2,2.7,4.4c1.2,1.2,2.8,2.3,4.6,2.9
						c2,0.7,4.2,1,6.9,1h16.3v-7.1h-15.9c-1.7,0-3-0.2-4-0.5c-1-0.4-2-0.8-2.6-1.4c-0.6-0.6-1.1-1.3-1.3-2.3
						c-0.3-0.8-0.4-1.8-0.4-2.8V3.7H262.2z"/>
				</defs>
				<clipPath id="SVGID_10_">
					<use xlink:href="#SVGID_9_"  style="overflow:visible;"/>
				</clipPath>
				<rect x="262.2" y="3.7" class="st5" width="31.4" height="40.8"/>
			</g>
		</g>
		<g>
			<g>
				<rect id="SVGID_21_" x="297.8" y="3.7" class="st0" width="7.1" height="40.8"/>
			</g>
			<g>
				<defs>
					<rect id="SVGID_12_" x="297.8" y="3.7" width="7.1" height="40.8"/>
				</defs>
				<clipPath id="SVGID_14_">
					<use xlink:href="#SVGID_12_"  style="overflow:visible;"/>
				</clipPath>
				<rect x="297.8" y="3.7" class="st6" width="7.1" height="40.8"/>
			</g>
		</g>
		<g>
			<g>
				<path id="SVGID_23_" class="st0" d="M326.2,4.1c-1.3,0.8-2.5,2.2-3.2,4.1l-14.3,36.3h7.8l12.9-32.8c0.4-0.9,1.1-1.3,2.1-1.3
					c0.9,0,1.7,0.4,2,1.3l12.4,32.8h7.9L339.9,8.3c-0.7-2-1.8-3.3-3.2-4.1c-1.3-0.8-3.2-1.1-5.3-1.1C329.4,3,327.6,3.3,326.2,4.1"/>
			</g>
			<g>
				<defs>
					<path id="SVGID_16_" d="M326.2,4.1c-1.3,0.8-2.5,2.2-3.2,4.1l-14.3,36.3h7.8l12.9-32.8c0.4-0.9,1.1-1.3,2.1-1.3
						c0.9,0,1.7,0.4,2,1.3l12.4,32.8h7.9L339.9,8.3c-0.7-2-1.8-3.3-3.2-4.1c-1.3-0.8-3.2-1.1-5.3-1.1C329.4,3,327.6,3.3,326.2,4.1"
						/>
				</defs>
				<clipPath id="SVGID_18_">
					<use xlink:href="#SVGID_16_"  style="overflow:visible;"/>
				</clipPath>
				<rect x="308.6" y="3" class="st7" width="45.2" height="41.6"/>
			</g>
		</g>
		<g>
			<g>
				<path id="SVGID_25_" class="st0" d="M359.7,5.4c-1.5,1.7-2.3,3.8-2.3,6.4v32.7h7.1V12.2c0-0.7,0.2-1.3,0.6-1.8
					c0.4-0.4,1-0.6,1.9-0.6c1.1,0,2.1,0.6,2.6,1.8l11.9,26.1c0.4,1.1,0.9,2.3,1.4,3.1c0.5,0.9,1.2,1.8,2.1,2.4
					c0.8,0.6,1.8,1.1,2.8,1.5c1,0.3,2.3,0.5,3.7,0.5c3.1,0,5.5-0.8,7-2.5c1.5-1.7,2.4-3.8,2.4-6.5V3.7h-7.2V36
					c0,0.7-0.2,1.2-0.6,1.7c-0.4,0.4-1,0.6-1.8,0.6c-0.7,0-1.2-0.2-1.7-0.5c-0.4-0.3-0.7-0.7-0.9-1.2l-12-26.1
					c-0.8-2.4-2-4.2-3.5-5.6c-1.4-1.3-3.6-2.1-6.4-2.1C363.5,3,361.1,3.8,359.7,5.4"/>
			</g>
			<g>
				<defs>
					<path id="SVGID_20_" d="M359.7,5.4c-1.5,1.7-2.3,3.8-2.3,6.4v32.7h7.1V12.2c0-0.7,0.2-1.3,0.6-1.8c0.4-0.4,1-0.6,1.9-0.6
						c1.1,0,2.1,0.6,2.6,1.8l11.9,26.1c0.4,1.1,0.9,2.3,1.4,3.1c0.5,0.9,1.2,1.8,2.1,2.4c0.8,0.6,1.8,1.1,2.8,1.5
						c1,0.3,2.3,0.5,3.7,0.5c3.1,0,5.5-0.8,7-2.5c1.5-1.7,2.4-3.8,2.4-6.5V3.7h-7.2V36c0,0.7-0.2,1.2-0.6,1.7
						c-0.4,0.4-1,0.6-1.8,0.6c-0.7,0-1.2-0.2-1.7-0.5c-0.4-0.3-0.7-0.7-0.9-1.2l-12-26.1c-0.8-2.4-2-4.2-3.5-5.6
						c-1.4-1.3-3.6-2.1-6.4-2.1C363.5,3,361.1,3.8,359.7,5.4"/>
				</defs>
				<clipPath id="SVGID_22_">
					<use xlink:href="#SVGID_20_"  style="overflow:visible;"/>
				</clipPath>
				<rect x="357.3" y="3" class="st8" width="43.4" height="42.3"/>
			</g>
		</g>
		<g>
			<g>
				<polygon id="SVGID_27_" class="st0" points="405,3.7 405,10.8 416.8,10.8 416.8,44.5 424,44.5 424,10.8 436,10.8 436,3.7 				
					"/>
			</g>
			<g>
				<defs>
					<polygon id="SVGID_24_" points="405,3.7 405,10.8 416.8,10.8 416.8,44.5 424,44.5 424,10.8 436,10.8 436,3.7 					"/>
				</defs>
				<clipPath id="SVGID_26_">
					<use xlink:href="#SVGID_24_"  style="overflow:visible;"/>
				</clipPath>
				<rect x="405" y="3.7" class="st9" width="31" height="40.8"/>
			</g>
		</g>
	</g>
	<g>
		<polygon class="st0" points="246.9,60.5 252.6,60.5 252.6,76.7 256,76.7 256,60.5 261.8,60.5 261.8,57 246.9,57 		"/>
		<path class="st0" d="M272.8,70.5c1.9,0,3.2-0.4,4-1.1s1.2-1.9,1.2-3.3c0-1.5-0.4-2.7-1.2-3.5c-0.8-0.8-2.2-1.2-3.9-1.2h-5
			c-0.9,0-1.8,0.1-2.5,0.4c-0.7,0.2-1.2,0.6-1.7,1c-0.4,0.4-0.7,1-0.9,1.7c-0.2,0.6-0.3,1.3-0.3,2.1v5.3c0,0.7,0.1,1.4,0.3,2.1
			c0.2,0.6,0.5,1.1,0.9,1.7c0.4,0.4,1,0.8,1.7,1c0.7,0.2,1.4,0.4,2.5,0.4h9.4v-3H268c-0.8,0-1.4-0.2-1.9-0.6
			c-0.3-0.4-0.5-0.9-0.5-1.5v-1.1h7.2V70.5z M265.5,66.4c0-0.6,0.2-1.1,0.5-1.5c0.3-0.4,0.9-0.6,1.9-0.6h5c0.7,0,1.3,0.2,1.7,0.5
			c0.3,0.3,0.5,0.8,0.5,1.4c0,0.5-0.2,1-0.5,1.3c-0.3,0.3-0.9,0.5-1.8,0.5h-7.2L265.5,66.4L265.5,66.4z"/>
		<path class="st0" d="M281.7,63.2c-1.2,1.2-1.8,3.2-1.8,5.8c0,2.6,0.6,4.5,1.8,5.8c1.2,1.2,2.8,1.9,4.8,1.9h7.9v-3h-7.6
			c-1.3,0-2.3-0.4-2.9-1.1s-0.9-2-0.9-3.6s0.3-2.9,0.9-3.6c0.6-0.7,1.5-1.1,2.9-1.1h7.6v-3h-7.9C284.6,61.3,283,62,281.7,63.2z"/>
		<path class="st0" d="M305.6,61.3h-5.5v-6.7h-3.1v22.1h3.1V64.3h5.5c1.7,0,2.8,0.3,3.5,1c0.7,0.6,1.1,1.5,1.1,2.8v8.7h3.1v-8.7
			c0-2.2-0.6-3.8-2-5C310.2,61.9,308.2,61.3,305.6,61.3z"/>
		<path class="st0" d="M325.1,61.3h-6.4c-0.8,0-1.3,0.2-1.7,0.5c-0.3,0.3-0.5,0.9-0.5,1.9v13h3.1v-12c0-0.3,0.1-0.4,0.4-0.4h5.1
			c1.7,0,2.8,0.3,3.5,0.9c0.7,0.6,1.1,1.5,1.1,2.8v8.7h3.1V68c0-2.2-0.6-3.8-2-5C329.7,61.9,327.7,61.3,325.1,61.3z"/>
		<path class="st0" d="M345.2,61.3H342c-2.1,0-3.7,0.6-4.8,1.9c-1.2,1.2-1.8,3.2-1.8,5.8c0,2.6,0.6,4.5,1.8,5.8
			c1.2,1.2,2.8,1.9,4.8,1.9h3.2c2.1,0,3.7-0.6,4.8-1.9c1.2-1.2,1.9-3.2,1.9-5.8c0-2.6-0.6-4.5-1.9-5.8
			C348.9,62,347.3,61.3,345.2,61.3z M347.9,72.6c-0.6,0.7-1.5,1.1-2.9,1.1h-2.8c-1.3,0-2.3-0.4-2.9-1.1c-0.6-0.7-0.9-2-0.9-3.6
			c0-1.7,0.3-2.9,0.9-3.6s1.5-1.1,2.9-1.1h2.7c1.3,0,2.3,0.4,2.9,1.1c0.6,0.7,0.9,2,0.9,3.6C348.7,70.7,348.4,71.9,347.9,72.6z"/>
		<rect x="354.4" y="54.7" class="st0" width="3.1" height="22.1"/>
		<path class="st0" d="M370,61.3h-3.2c-2.1,0-3.7,0.6-4.8,1.9c-1.2,1.2-1.8,3.2-1.8,5.8c0,2.6,0.6,4.5,1.8,5.8
			c1.2,1.2,2.8,1.9,4.8,1.9h3.2c2.1,0,3.7-0.6,4.8-1.9c1.2-1.2,1.9-3.2,1.9-5.8c0-2.6-0.6-4.5-1.9-5.8C373.7,62,372.1,61.3,370,61.3
			z M372.7,72.6c-0.6,0.7-1.5,1.1-2.9,1.1h-2.7c-1.3,0-2.3-0.4-2.9-1.1c-0.6-0.7-0.9-2-0.9-3.6c0-1.7,0.3-2.9,0.9-3.6
			s1.5-1.1,2.9-1.1h2.7c1.3,0,2.3,0.4,2.9,1.1c0.6,0.7,0.9,2,0.9,3.6C373.6,70.7,373.3,71.9,372.7,72.6z"/>
		<path class="st0" d="M389.5,61.3h-4.2c-2.1,0-3.7,0.6-4.8,1.9c-1.2,1.2-1.8,3.1-1.8,5.6c0,2.5,0.6,4.3,1.8,5.6
			c1.2,1.2,2.8,1.9,4.8,1.9h6.8v0.7c0,1.1-0.2,1.9-0.7,2.4c-0.4,0.5-1.2,0.7-2.4,0.7h-8.8v3h9.2c1,0,2-0.1,2.7-0.3
			c0.7-0.2,1.3-0.6,1.9-1c0.4-0.5,0.8-1.1,1-1.9c0.2-0.8,0.3-1.8,0.3-2.8v-8.9c0-2.3-0.5-3.9-1.4-5
			C392.7,61.9,391.3,61.3,389.5,61.3z M392,73.2h-6.5c-1.3,0-2.3-0.3-2.9-1c-0.6-0.7-0.9-1.9-0.9-3.4c0-1.5,0.3-2.7,0.9-3.4
			c0.6-0.7,1.5-1,2.9-1h3.1c1.2,0,2.2,0.3,2.7,0.8s0.8,1.4,0.8,2.8v5.3H392z"/>
		<rect x="398.3" y="61.3" class="st0" width="3.1" height="15.4"/>
		<path class="st0" d="M414.7,70.5c1.9,0,3.2-0.4,4-1.1s1.2-1.9,1.2-3.3c0-1.5-0.4-2.7-1.2-3.5c-0.8-0.8-2.2-1.2-3.9-1.2h-5
			c-0.9,0-1.8,0.1-2.5,0.4c-0.7,0.2-1.2,0.6-1.7,1c-0.4,0.4-0.7,1-0.9,1.7c-0.2,0.6-0.3,1.3-0.3,2.1v5.3c0,0.7,0.1,1.4,0.3,2.1
			c0.2,0.6,0.5,1.1,0.9,1.7c0.4,0.4,1,0.8,1.7,1c0.7,0.2,1.4,0.4,2.5,0.4h9.4v-3h-9.4c-0.8,0-1.4-0.2-1.9-0.6
			c-0.3-0.4-0.5-0.9-0.5-1.5v-1.1h7.2V70.5z M407.3,66.4c0-0.6,0.2-1.1,0.5-1.5c0.3-0.4,0.9-0.6,1.9-0.6h5c0.7,0,1.3,0.2,1.7,0.5
			c0.3,0.3,0.5,0.8,0.5,1.4c0,0.5-0.2,1-0.5,1.3c-0.3,0.3-0.9,0.5-1.8,0.5h-7.2L407.3,66.4L407.3,66.4z"/>
		<path class="st0" d="M434.9,69c-0.4-0.4-0.9-0.7-1.7-0.9c-0.7-0.2-1.5-0.3-2.7-0.3h-3.6c-0.8,0-1.4-0.1-1.8-0.4
			c-0.3-0.3-0.4-0.7-0.4-1.2c0-0.6,0.2-1,0.5-1.3s0.8-0.4,1.5-0.4h8.6v-3h-8.6c-1.8,0-3.1,0.4-3.8,1.2c-0.8,0.8-1.1,1.9-1.1,3.3
			c0,0.6,0.1,1.1,0.2,1.7c0.2,0.5,0.4,1,0.8,1.4c0.4,0.4,0.9,0.7,1.7,1c0.7,0.2,1.5,0.4,2.6,0.4h3.6c0.8,0,1.3,0.1,1.7,0.4
			c0.3,0.3,0.5,0.7,0.5,1.3s-0.2,1-0.5,1.3c-0.3,0.3-0.8,0.4-1.5,0.4h-9v3h9c0.9,0,1.7-0.1,2.3-0.3c0.6-0.2,1.1-0.5,1.5-0.9
			c0.4-0.4,0.7-0.9,0.9-1.4c0.2-0.6,0.3-1.2,0.3-1.9c0-0.6-0.1-1.1-0.2-1.7C435.6,69.8,435.3,69.4,434.9,69z"/>
	</g>
	<g>
		<path class="st10" d="M222,95.9l0.5,0.5c-0.8,1.1-1.7,1.9-2.3,2.4s-1.1,0.7-1.4,0.7c-0.2,0-0.4-0.2-0.4-0.7c0-1.1,0.7-2.9,2.3-5.3
			c1.2-2.1,1.9-3.2,1.9-3.4c0-0.2-0.1-0.3-0.2-0.3c-0.3,0-1,0.6-2.3,2c-1.2,1.3-2.7,3.2-4.4,5.7c-2,2.7-3.4,4.6-4.1,5.8
			c1.4,0.1,2.6,0.3,3.5,0.5c0.9,0.2,2.3,0.6,3.9,1c1.8,0.5,3,0.8,3.8,0.8c-1,1.1-1.7,1.9-2.1,2.3c-0.4,0.4-0.6,0.6-0.8,0.7
			c-0.3,0.1-0.8,0.1-1.4,0c-0.6-0.1-1.7-0.3-3-0.7c-1.3-0.3-2.6-0.6-3.8-0.8c-1.1-0.2-2.3-0.3-3.2-0.3c-0.5,0-1,0.1-1.4,0.2
			c-0.4,0.1-0.9,0.3-1.7,0.6c-0.7,0.3-1.2,0.4-1.4,0.4c-0.4,0-0.6-0.2-0.6-0.5c0-0.2,0.1-0.4,0.2-0.6c0.3-0.5,0.7-1.1,1-1.7
			c0.3-0.5,0.7-0.9,1-1.2c0.4-0.3,0.9-0.5,1.7-0.6c0.7-0.2,1.7-0.2,2.8-0.2c1.8-2.7,3.3-5.1,4.8-7c1.5-2.1,2.9-3.8,4.1-5.2
			c1.2-1.4,2.3-2.5,3.2-3.2c0.9-0.7,1.7-1.1,2.2-1.1c0.4,0,0.7,0.1,0.9,0.3c0.2,0.2,0.3,0.5,0.3,0.9C225.3,89.3,224.2,91.9,222,95.9
			z"/>
		<path class="st10" d="M227.1,103.6v0.4c0,0.6,0.1,1.1,0.4,1.4c0.3,0.3,0.7,0.5,1.2,0.5c0.5,0,1-0.1,1.7-0.4
			c0.5-0.2,1.1-0.5,1.7-0.9c0.5-0.4,1.2-0.9,2.1-1.7v0.9c-1.2,1.4-2.4,2.6-3.4,3.3c-1,0.7-2.2,1.1-3.2,1.1c-0.9,0-1.7-0.4-2.3-1.1
			s-0.8-1.8-0.8-3c0-1.1,0.3-2.2,0.8-3c0.5-0.9,1.3-1.9,2.6-2.9c0.8-0.7,1.7-1.2,2.4-1.5c0.8-0.3,1.5-0.5,2.2-0.5
			c0.5,0,0.9,0.1,1.1,0.3c0.3,0.2,0.4,0.6,0.4,1c0,0.6-0.2,1.3-0.7,2c-0.5,0.6-1.2,1.3-2.3,2C229.8,102.1,228.5,102.9,227.1,103.6z
			 M227.2,102.5c0.9-0.4,1.8-0.8,2.5-1.3c0.7-0.5,1.1-1,1.5-1.5c0.3-0.5,0.5-0.8,0.5-1.1c0-0.2-0.1-0.4-0.3-0.4
			c-0.2,0-0.5,0.1-0.9,0.4c-0.4,0.2-0.8,0.5-1.3,0.9c-0.4,0.4-0.8,0.8-1.1,1.3C227.6,101.3,227.3,101.9,227.2,102.5z"/>
		<path class="st10" d="M239.6,94.7h0.7c0.5-1,1-1.8,1.5-2.2c0.4-0.4,0.9-0.6,1.5-0.6s0.8,0.1,0.8,0.4c0,0.1-0.2,0.5-0.7,1
			c-0.5,0.5-0.8,1-1,1.4c0.3,0,0.7,0.1,0.9,0.1c0.3,0,0.5,0.1,0.6,0.1c-0.6,1.1-1.3,2.3-2.3,3.4c-0.3,0-0.5,0-0.7-0.1
			c-0.2,0-0.4,0-0.6,0c-0.2,0-0.4,0-0.7-0.1c-0.6,0.9-1,1.8-1.4,2.5c-0.4,0.7-0.7,1.4-0.9,2c-0.2,0.6-0.3,1.1-0.3,1.8
			c0,0.7,0.3,1.1,0.8,1.1c0.4,0,0.9-0.2,1.5-0.6c0.6-0.4,1.5-1.1,2.6-2v1c-2.9,3.1-5,4.6-6.4,4.6c-0.5,0-0.8-0.2-1.1-0.5
			c-0.3-0.4-0.4-0.8-0.4-1.4c0-0.4,0.1-0.8,0.2-1.4c0.2-0.5,0.4-1.3,0.9-2.5c-0.1,0.1-0.3,0.2-0.4,0.4c-0.1,0.1-0.2,0.2-0.4,0.3
			c-0.1,0.1-0.2,0.2-0.3,0.3c-0.1,0.1-0.2,0.2-0.4,0.3v-1.1c1.1-0.9,2.5-2.6,4-5c-0.2,0-0.3,0-0.4,0c-0.1,0-0.3,0-0.5,0
			c-0.6,0-1.1,0-1.4,0.1c-0.1,0-0.2,0.1-0.3,0.1c-0.1,0-0.2,0.1-0.2,0.1s-0.1,0-0.1-0.1c0-0.3,0.2-0.8,0.6-1.5c0.3-0.6,0.7-1,1-1.3
			s0.7-0.5,1.1-0.6C238.2,94.8,238.8,94.7,239.6,94.7z"/>
		<path class="st10" d="M249.5,90.3c0-0.1,0-0.1-0.1-0.1c-0.4,0-0.6-0.2-0.6-0.6c0-0.3,0.1-0.7,0.4-1.2c0.3-0.5,0.6-0.8,1-1.2
			s0.7-0.5,1-0.5c0.4,0,0.6,0.3,0.6,0.8s-0.2,1.2-0.6,1.9c-0.4,0.6-0.9,1.2-1.4,1.8c-0.5,0.5-0.8,0.7-0.9,0.7c-0.1,0-0.1,0-0.1-0.1
			c0-0.1,0.1-0.4,0.3-0.6C249.4,90.6,249.5,90.4,249.5,90.3z"/>
		<path class="st10" d="M250.5,103.5V103c2.8-2.9,4.6-5,5.7-6.1c0.2-1.3,0.8-2,1.7-2c0.2,0,0.4,0.1,0.7,0.2l0.1,0.3
			c0,0.1-0.1,0.3-0.1,0.5s0.1,0.6,0.2,1.1c0.1,0.5,0.3,1,0.3,1.3c0.1,0.4,0.1,0.8,0.1,1.2c0,0.7-0.2,1.3-0.5,2.1
			c-0.3,0.6-0.8,1.2-1.3,1.9c-0.6,0.6-1.3,1.2-2.4,1.9c0.4,0.1,0.7,0.1,0.9,0.1c0.4,0,0.9-0.1,1.4-0.3c0.5-0.2,1-0.5,1.5-0.8
			c0.5-0.3,1.1-0.8,1.9-1.4v1c-1.3,1.3-2.6,2.4-3.6,3c-1,0.7-2,1-2.8,1c-1,0-2-0.4-2.8-1.2c-0.5-0.5-0.8-1-0.9-1.4
			C250.6,104.9,250.5,104.3,250.5,103.5z M256.4,101l-0.3-2.4c-0.6,0.7-2.1,2.2-4.2,4.3c0.6,0.1,1,0.3,1.3,0.5
			c0.2,0.2,0.5,0.7,1,1.3c0.7-0.3,1.2-0.7,1.7-1.2s0.6-1.2,0.6-2.1c0-0.1,0-0.2,0-0.3C256.4,101.2,256.4,101.1,256.4,101z"/>
		<path class="st10" d="M277.1,105.2c1.4-1.3,2.7-2.4,3.8-3.4c1-0.9,1.9-1.8,2.5-2.3c0.6-0.5,1.1-1,1.5-1.4c0.4-0.4,0.7-0.6,0.8-0.6
			c0.2,0,0.5,0.2,0.7,0.7s0.3,0.9,0.3,1.2c0,0.2-0.3,0.7-1,1.4c-0.7,0.7-1.1,1.3-1.5,1.8c-0.3,0.4-0.5,0.9-0.5,1.4
			c0,0.3,0.1,0.5,0.3,0.7c0.2,0.2,0.4,0.3,0.7,0.3c0.3,0,0.7-0.2,1.1-0.5c0.4-0.3,1.1-0.9,2.1-1.8v1.1c-0.9,0.8-1.8,1.7-2.5,2.3
			c-0.7,0.6-1.4,1.1-2,1.4c-0.5,0.3-1,0.5-1.3,0.5s-0.6-0.1-0.8-0.4c-0.2-0.2-0.3-0.5-0.3-0.9c0-0.3,0.1-0.7,0.2-1.1
			c0.1-0.4,0.3-0.8,0.6-1.3c0.3-0.5,0.6-1.1,1-1.9c0.4-0.7,0.8-1.3,1.2-2c-1,0.9-2.1,1.8-2.9,2.6c-0.8,0.8-1.5,1.5-2.1,2.2
			c-0.5,0.6-0.9,1.1-1.2,1.4c-0.6,0.6-1.1,1-1.7,1s-0.8-0.4-0.8-1.1c0-0.3,0.2-0.9,0.6-1.8s1-1.9,1.8-3.1c0.1-0.1,0.1-0.2,0.1-0.4
			c0-0.2-0.1-0.3-0.3-0.3c-0.2,0-0.6,0.2-1,0.6c-0.4,0.4-1.3,1.3-2.6,2.8c-0.3,0.4-0.7,0.9-1.1,1.5c-0.4,0.6-0.7,1-0.9,1.2
			c-0.2,0.2-0.4,0.3-0.6,0.3c-0.4,0-0.7-0.3-1-1s-0.5-1.4-0.5-2.4c0-0.6,0.1-1.2,0.3-1.8c0.2-0.5,0.5-1,1-1.8c0.7-1,1.3-1.8,1.8-2.2
			c0.4-0.4,0.9-0.6,1.4-0.6c0.3,0,0.5,0.1,0.8,0.2c0.3,0.1,0.3,0.3,0.3,0.5s-0.2,0.6-0.6,1.1c-0.4,0.5-0.9,1-1.4,1.5
			c-0.3,0.3-0.6,0.7-0.9,1.1c-0.3,0.4-0.4,0.8-0.4,0.9c0,0.3,0.1,0.4,0.3,0.4s0.6-0.4,1.3-1.1c0.7-0.7,1.5-1.5,2.4-2.5
			s1.7-1.7,2.5-2.2c0.7-0.6,1.3-0.8,1.9-0.8c0.3,0,0.6,0.1,0.8,0.3c0.2,0.2,0.3,0.5,0.3,0.9c0,0.2-0.2,0.6-0.5,1.2
			c-0.3,0.6-0.8,1.3-1.4,2.3C278.9,102.8,278.1,103.9,277.1,105.2z"/>
		<path class="st10" d="M289.7,100.2c1.7-1.4,3.2-2.6,4.7-3.3c1.5-0.7,2.7-1,3.5-1c0.2,0,0.4,0.1,0.6,0.3s0.3,0.4,0.4,0.6
			c0.1,0.2,0.2,0.4,0.2,0.5c0,0.2-0.1,0.3-0.2,0.4c-0.1,0.1-0.4,0.2-0.8,0.3c0.1,0.2,0.2,0.4,0.3,0.6c0.1,0.2,0.2,0.5,0.3,0.6
			c0.1,0.2,0.1,0.3,0.1,0.4c0,0.2-0.2,0.7-0.7,1.4c-0.5,0.7-0.8,1.2-1,1.5c-0.2,0.3-0.3,0.7-0.3,1.2c0,0.8,0.3,1.1,1,1.1
			c0.7,0,1.9-0.7,3.5-2.1v0.9c-2.7,3-4.6,4.4-5.8,4.4c-0.4,0-0.7-0.1-0.9-0.4c-0.2-0.3-0.3-0.7-0.3-1.2c0-0.8,0.3-2.1,0.9-3.6
			c-1.5,1.8-2.7,3-3.4,3.7s-1.3,1.1-1.9,1.1c-0.2,0-0.5-0.2-0.8-0.6c-0.3-0.4-0.6-0.9-0.9-1.5c-0.3-0.6-0.4-1.3-0.4-2
			c0-0.5,0-0.9,0.1-1.2s0.3-0.7,0.5-1C288.6,101.2,289,100.8,289.7,100.2z M297.3,98.4c-2.8,1.2-4.7,2.4-5.9,3.2
			c-1.1,0.9-1.8,1.8-1.8,2.7c0,0.3,0.1,0.6,0.2,0.8s0.3,0.3,0.5,0.3c0.1,0,0.3-0.1,0.6-0.2c1.1-0.6,2.2-1.5,3.1-2.6
			C294.9,101.6,296,100.3,297.3,98.4z"/>
		<path class="st10" d="M313.1,103v1c-1.2,1.3-2.2,2.5-3,3.2s-1.4,1-2.1,1c-0.5,0-1-0.1-1.4-0.4c-0.4-0.3-0.8-0.7-1.1-1.2
			c-0.3-0.5-0.7-1.3-1.1-2.3c-0.5,0.6-1,1.3-1.4,1.9c-0.4,0.5-0.7,0.9-0.9,1.1s-0.3,0.3-0.4,0.3c-0.3,0-0.5-0.2-0.6-0.5
			c-0.1-0.4-0.2-0.9-0.2-1.7c0-0.9,0.1-1.9,0.3-2.8c0.2-0.9,0.5-1.8,1-2.6c0.4-0.8,1-1.8,1.7-2.7s1.4-2,2.3-3.1
			c1.1-1.4,2.2-2.7,3-3.6c0.8-0.9,1.5-1.7,2.2-2.1c0.6-0.5,1.1-0.7,1.5-0.7c0.5,0,0.7,0.2,0.7,0.7c0,0.4-0.9,1.9-2.8,4.2
			c-1.9,2.5-4.6,5.8-8.3,10v1.3c2.4-2.6,4.3-4.5,5.8-5.8s2.6-1.9,3.4-1.9c0.3,0,0.6,0.2,0.7,0.6c0.2,0.4,0.3,0.8,0.3,1.3
			c0,1-0.4,2-1.3,2.9c-0.9,0.9-2.3,1.9-4.1,3.1c0.3,0.5,0.6,0.8,0.8,1s0.5,0.3,0.9,0.3c0.3,0,0.7-0.1,1-0.3c0.4-0.2,0.7-0.5,1.1-0.8
			C311.4,104.5,312.2,103.8,313.1,103z M306.8,103.8c0.4-0.3,0.9-0.7,1.5-1.2s1.1-1.1,1.5-1.8c0.4-0.6,0.6-1.1,0.6-1.5
			c0-0.2-0.1-0.2-0.2-0.2c-0.4,0-1.1,0.4-2.1,1.1c-1,0.8-2,1.8-2.9,3C305.6,103.3,306.2,103.5,306.8,103.8z"/>
		<path class="st10" d="M315.5,103.6v0.4c0,0.6,0.1,1.1,0.4,1.4s0.7,0.5,1.2,0.5c0.5,0,1-0.1,1.7-0.4c0.5-0.2,1.1-0.5,1.7-0.9
			c0.5-0.4,1.2-0.9,2.1-1.7v0.9c-1.2,1.4-2.4,2.6-3.4,3.3c-1,0.7-2.2,1.1-3.2,1.1c-0.9,0-1.7-0.4-2.3-1.1s-0.8-1.8-0.8-3
			c0-1.1,0.3-2.2,0.8-3c0.5-0.9,1.3-1.9,2.6-2.9c0.8-0.7,1.7-1.2,2.4-1.5c0.8-0.3,1.5-0.5,2.2-0.5c0.5,0,0.9,0.1,1.1,0.3
			c0.3,0.2,0.4,0.6,0.4,1c0,0.6-0.2,1.3-0.7,2c-0.5,0.6-1.2,1.3-2.3,2C318.3,102.1,317,102.9,315.5,103.6z M315.6,102.5
			c0.9-0.4,1.8-0.8,2.5-1.3c0.7-0.5,1.1-1,1.5-1.5c0.3-0.5,0.5-0.8,0.5-1.1c0-0.2-0.1-0.4-0.3-0.4s-0.5,0.1-0.9,0.4
			c-0.4,0.2-0.8,0.5-1.3,0.9s-0.8,0.8-1.1,1.3C316,101.3,315.7,101.9,315.6,102.5z"/>
		<path class="st10" d="M339.3,103v1.1c-1,1.3-2,2.4-2.9,3c-0.9,0.6-1.7,1-2.3,1c-0.8,0-1.5-0.4-2-1.3s-0.6-2-0.6-3
			c0-0.4,0-0.8,0.1-1.1c0.1-0.4,0.2-0.7,0.3-0.9c0.1-0.2,0.3-0.6,0.6-1.1c1.5-2.4,2.9-3.5,4.1-3.5c0.6,0,0.9,0.2,0.9,0.7
			c0,0.3-0.2,0.8-0.6,1.5c-0.4,0.7-0.8,1.2-1.1,1.5c-0.9,0.9-1.5,1.5-1.9,1.9c-0.3,0.3-0.4,0.7-0.4,1.2c0,0.4,0.1,0.7,0.4,0.9
			c0.3,0.2,0.6,0.4,1.1,0.4c0.5,0,1-0.2,1.7-0.5C337.5,104.4,338.2,103.8,339.3,103z M338.1,95.9c-0.3,0-0.5-0.1-0.7-0.3
			c-0.2-0.2-0.3-0.4-0.3-0.7c0-0.5,0.2-1,0.6-1.5c0.4-0.6,0.9-0.8,1.3-0.8c0.3,0,0.6,0.1,0.8,0.3s0.3,0.5,0.3,0.8
			c0,0.4-0.2,0.9-0.6,1.5C339.2,95.6,338.6,95.9,338.1,95.9z"/>
		<path class="st10" d="M344.7,94.7h0.7c0.5-1,1-1.8,1.5-2.2c0.5-0.4,0.9-0.6,1.5-0.6s0.8,0.1,0.8,0.4c0,0.1-0.2,0.5-0.7,1
			s-0.8,1-1,1.4c0.3,0,0.7,0.1,0.9,0.1c0.3,0,0.5,0.1,0.6,0.1c-0.6,1.1-1.3,2.3-2.3,3.4c-0.3,0-0.5,0-0.7-0.1c-0.2,0-0.4,0-0.6,0
			c-0.2,0-0.4,0-0.7-0.1c-0.6,0.9-1,1.8-1.4,2.5c-0.4,0.7-0.7,1.4-0.9,2c-0.2,0.6-0.3,1.1-0.3,1.8c0,0.7,0.3,1.1,0.8,1.1
			c0.4,0,0.9-0.2,1.5-0.6c0.6-0.4,1.5-1.1,2.6-2v1c-2.9,3.1-5,4.6-6.4,4.6c-0.5,0-0.8-0.2-1.1-0.5c-0.3-0.4-0.4-0.8-0.4-1.4
			c0-0.4,0.1-0.8,0.2-1.4c0.2-0.5,0.4-1.3,0.9-2.5c-0.1,0.1-0.3,0.2-0.4,0.4c-0.1,0.2-0.2,0.2-0.4,0.3c-0.1,0.1-0.2,0.2-0.3,0.3
			c-0.1,0.1-0.2,0.2-0.4,0.3v-1.1c1.1-0.9,2.5-2.6,4-5c-0.2,0-0.3,0-0.4,0c-0.1,0-0.3,0-0.5,0c-0.6,0-1.1,0-1.4,0.1
			c-0.1,0-0.2,0.1-0.3,0.1c-0.1,0-0.2,0.1-0.2,0.1s-0.1,0-0.1-0.1c0-0.3,0.2-0.8,0.6-1.5c0.3-0.6,0.7-1,1-1.3s0.7-0.5,1.1-0.6
			C343.2,94.8,343.9,94.7,344.7,94.7z"/>
		<path class="st10" d="M362,94.7h0.7c0.5-1,1-1.8,1.5-2.2c0.5-0.4,0.9-0.6,1.5-0.6s0.8,0.1,0.8,0.4c0,0.1-0.2,0.5-0.7,1
			c-0.5,0.5-0.8,1-1,1.4c0.3,0,0.7,0.1,0.9,0.1c0.3,0,0.5,0.1,0.6,0.1c-0.6,1.1-1.3,2.3-2.3,3.4c-0.3,0-0.5,0-0.7-0.1
			c-0.2,0-0.4,0-0.6,0s-0.4,0-0.7-0.1c-0.6,0.9-1,1.8-1.4,2.5c-0.4,0.7-0.7,1.4-0.9,2c-0.2,0.6-0.3,1.1-0.3,1.8
			c0,0.7,0.3,1.1,0.8,1.1c0.4,0,0.9-0.2,1.5-0.6c0.6-0.4,1.5-1.1,2.6-2v1c-2.9,3.1-5,4.6-6.4,4.6c-0.5,0-0.8-0.2-1.1-0.5
			c-0.3-0.4-0.4-0.8-0.4-1.4c0-0.4,0.1-0.8,0.2-1.4c0.2-0.5,0.4-1.3,0.9-2.5c-0.1,0.1-0.3,0.2-0.4,0.4c-0.1,0.2-0.2,0.2-0.4,0.3
			c-0.1,0.1-0.2,0.2-0.3,0.3c-0.1,0.1-0.2,0.2-0.4,0.3v-1.1c1.1-0.9,2.5-2.6,4-5c-0.2,0-0.3,0-0.4,0s-0.3,0-0.5,0
			c-0.6,0-1.1,0-1.4,0.1c-0.1,0-0.2,0.1-0.3,0.1s-0.2,0.1-0.2,0.1s-0.1,0-0.1-0.1c0-0.3,0.2-0.8,0.6-1.5c0.3-0.6,0.7-1,1-1.3
			s0.7-0.5,1.1-0.6C360.5,94.8,361.1,94.7,362,94.7z"/>
		<path class="st10" d="M374.7,102.9v1c-0.7,0.6-1.2,1-1.7,1.2c-0.4,0.2-1,0.3-1.9,0.2c-1.3,1.7-2.6,2.5-3.6,2.5
			c-0.6,0-1.1-0.2-1.7-0.6c-0.5-0.4-0.9-0.9-1.1-1.7c-0.3-0.7-0.4-1.4-0.4-2.3c0-0.7,0.2-1.4,0.7-2.3c0.4-0.8,1-1.7,1.8-2.3
			c0.7-0.7,1.4-1.3,2.3-1.8c0.8-0.4,1.5-0.6,2.3-0.6c0.5,0,0.9,0.1,1.1,0.2c0.3,0.1,0.4,0.4,0.4,0.6s-0.1,0.4-0.4,0.7
			c0.4,0.1,0.7,0.2,0.8,0.4c0.1,0.2,0.2,0.5,0.2,1s-0.1,1.1-0.3,2c-0.2,0.8-0.5,1.5-0.9,2.2l0.3,0.3h0.2c0.2,0,0.3,0,0.5-0.1
			c0.2-0.1,0.3-0.2,0.5-0.3C374,103.6,374.3,103.4,374.7,102.9z M371.5,98.8c-0.9,0.5-1.7,1-2.3,1.4c-0.6,0.4-1.1,0.8-1.5,1.3
			s-0.7,0.9-0.8,1.3c-0.3,1.2-0.4,1.9-0.4,2c0,0.7,0.5,1,1.4,1c0.4,0,1.2-0.4,2.3-1.1c-0.2-0.5-0.3-0.9-0.3-1.4
			c0-0.6,0.1-1.3,0.4-2.1C370.5,100.5,370.9,99.6,371.5,98.8z"/>
		<path class="st10" d="M387.4,104.1l-5.3,4.3c-1.4,2.6-2.9,4.4-4,5.8c-1.2,1.2-2.2,1.9-2.7,1.9c-0.3,0-0.5-0.2-0.5-0.6
			c0-0.7,0.4-1.8,1.1-2.9c0.3-0.5,0.6-0.9,1-1.3c0.4-0.4,0.8-0.8,1.1-1.1c0.3-0.3,0.8-0.7,1.4-1.2c0.6-0.5,1-0.8,1.2-1
			c1-2.2,1.9-3.8,2.3-5c-1,1-1.9,2-2.6,2.6c-0.7,0.7-1.4,1.2-2.1,1.5c-0.6,0.4-1.1,0.5-1.7,0.5s-1-0.4-1.5-1.3
			c-0.4-0.8-0.7-1.8-0.7-2.7c0-0.4,0.1-0.8,0.3-1.3c0.2-0.5,0.5-0.9,0.9-1.5c0.4-0.5,0.9-1,1.7-1.7c0.6-0.5,1.4-1.1,2.3-1.7
			c1.7-1,2.9-1.5,3.8-1.5c0.7,0,1,0.2,1,0.7c0,0.7-0.7,1.3-2.2,2.1c-0.9,0.4-1.8,0.9-2.7,1.5c-0.9,0.6-1.7,1.3-2.2,2.1
			s-0.8,1.3-0.8,2c0,0.3,0.1,0.5,0.2,0.7c0.1,0.2,0.3,0.2,0.5,0.2c0.4,0,0.8-0.2,1.2-0.5c0.5-0.3,1.1-0.9,2.2-1.8
			c0.4-0.4,1-1,1.7-1.9c0.7-0.8,1.3-1.5,1.8-2c0.4-0.4,0.9-0.7,1.2-0.7c0.2,0,0.4,0.1,0.5,0.2c0.1,0.1,0.2,0.3,0.2,0.6
			c0,0.5-0.2,1.2-0.6,2.2c-0.4,0.9-1.1,2.5-2.1,4.5l3.8-2.8L387.4,104.1L387.4,104.1z"/>
		<path class="st10" d="M389.8,103.6v0.4c0,0.6,0.1,1.1,0.4,1.4s0.7,0.5,1.2,0.5s1-0.1,1.7-0.4c0.5-0.2,1.1-0.5,1.7-0.9
			c0.5-0.4,1.2-0.9,2.1-1.7v0.9c-1.2,1.4-2.4,2.6-3.4,3.3c-1,0.7-2.2,1.1-3.2,1.1c-0.9,0-1.7-0.4-2.3-1.1s-0.8-1.8-0.8-3
			c0-1.1,0.3-2.2,0.8-3c0.5-0.9,1.3-1.9,2.6-2.9c0.8-0.7,1.7-1.2,2.4-1.5c0.8-0.3,1.5-0.5,2.2-0.5c0.5,0,0.9,0.1,1.1,0.3
			c0.3,0.2,0.4,0.6,0.4,1c0,0.6-0.2,1.3-0.7,2c-0.5,0.6-1.2,1.3-2.3,2C392.6,102.1,391.3,102.9,389.8,103.6z M390,102.5
			c0.9-0.4,1.8-0.8,2.5-1.3c0.7-0.5,1.1-1,1.5-1.5c0.3-0.5,0.5-0.8,0.5-1.1c0-0.2-0.1-0.4-0.3-0.4s-0.5,0.1-0.9,0.4
			c-0.4,0.2-0.8,0.5-1.3,0.9s-0.8,0.8-1.1,1.3C390.3,101.3,390.1,101.9,390,102.5z"/>
		<path class="st10" d="M402.4,94.7h0.7c0.5-1,1-1.8,1.5-2.2c0.5-0.4,0.9-0.6,1.5-0.6s0.8,0.1,0.8,0.4c0,0.1-0.2,0.5-0.7,1
			c-0.5,0.5-0.8,1-1,1.4c0.3,0,0.7,0.1,0.9,0.1c0.3,0,0.5,0.1,0.6,0.1c-0.6,1.1-1.3,2.3-2.3,3.4c-0.3,0-0.5,0-0.7-0.1
			c-0.2,0-0.4,0-0.6,0c-0.2,0-0.4,0-0.7-0.1c-0.6,0.9-1,1.8-1.4,2.5c-0.4,0.7-0.7,1.4-0.9,2c-0.2,0.6-0.3,1.1-0.3,1.8
			c0,0.7,0.3,1.1,0.8,1.1c0.4,0,0.9-0.2,1.5-0.6c0.6-0.4,1.5-1.1,2.6-2v1c-2.9,3.1-5,4.6-6.4,4.6c-0.5,0-0.8-0.2-1.1-0.5
			c-0.3-0.4-0.4-0.8-0.4-1.4c0-0.4,0.1-0.8,0.2-1.4c0.2-0.5,0.4-1.3,0.9-2.5c-0.1,0.1-0.3,0.2-0.4,0.4c-0.1,0.2-0.2,0.2-0.4,0.3
			c-0.1,0.1-0.2,0.2-0.3,0.3c-0.1,0.1-0.2,0.2-0.4,0.3v-1.1c1.1-0.9,2.5-2.6,4-5c-0.2,0-0.3,0-0.4,0c-0.1,0-0.3,0-0.5,0
			c-0.6,0-1.1,0-1.4,0.1c-0.1,0-0.2,0.1-0.3,0.1c-0.1,0-0.2,0.1-0.2,0.1s-0.1,0-0.1-0.1c0-0.3,0.2-0.8,0.6-1.5c0.3-0.6,0.7-1,1-1.3
			s0.7-0.5,1.1-0.6C400.9,94.8,401.6,94.7,402.4,94.7z"/>
		<path class="st10" d="M416.8,103v1c-0.9,0.9-1.8,1.8-2.4,2.3c-0.7,0.6-1.2,1-1.8,1.3c-0.5,0.3-0.9,0.4-1.2,0.4
			c-0.8,0-1.2-0.5-1.2-1.4c0-0.8,0.2-1.7,0.7-2.7c0.5-1,1.2-2.3,2.3-3.6c-0.5,0.3-0.9,0.6-1.3,0.9c-0.4,0.3-0.8,0.7-1.1,1
			c-0.3,0.4-0.6,0.7-0.8,0.9c-0.7,0.8-1.3,1.5-2,2.4c-0.6,0.8-1,1.3-1.3,1.5c-0.2,0.2-0.4,0.4-0.6,0.4c-0.8,0-1.2-1-1.2-3.1
			c0-0.6,0.1-1.4,0.3-2.2s0.7-1.9,1.7-3.2c1.9-2.8,3.4-5.1,4.7-6.8c1.3-1.8,2.4-3.1,3.3-4c0.8-0.9,1.4-1.3,1.8-1.3
			c0.4,0,0.7,0.1,0.9,0.2c0.2,0.1,0.3,0.2,0.3,0.4c0,0.3-0.2,0.7-0.5,1.3c-0.4,0.6-1,1.5-1.9,2.9c-0.9,1.3-1.7,2.4-2.1,2.9
			c-0.4,0.5-1,1.3-1.9,2.4c-0.8,1-1.5,2-2.2,2.8c-0.6,0.8-1.4,1.7-2.3,2.6v2c1.4-1.5,2.7-2.9,3.7-3.9c1-1,2-1.8,2.7-2.3
			c0.7-0.5,1.2-0.7,1.5-0.7s0.6,0.2,0.9,0.5c0.3,0.3,0.4,0.7,0.4,0.9c0,0.1-0.1,0.2-0.2,0.4c-0.7,0.9-1.3,1.7-1.9,2.3
			c-0.4,0.6-0.8,1.1-1,1.7s-0.4,0.9-0.4,1.2c0,0.5,0.2,0.7,0.7,0.7C413.9,105,415.1,104.4,416.8,103z"/>
		<path class="st10" d="M419.4,103.6v0.4c0,0.6,0.1,1.1,0.4,1.4s0.7,0.5,1.2,0.5c0.5,0,1-0.1,1.7-0.4c0.5-0.2,1.1-0.5,1.7-0.9
			c0.5-0.4,1.2-0.9,2.1-1.7v0.9c-1.2,1.4-2.4,2.6-3.4,3.3s-2.2,1.1-3.2,1.1c-0.9,0-1.7-0.4-2.3-1.1s-0.8-1.8-0.8-3
			c0-1.1,0.3-2.2,0.8-3c0.5-0.9,1.3-1.9,2.6-2.9c0.8-0.7,1.7-1.2,2.4-1.5c0.8-0.3,1.5-0.5,2.2-0.5c0.5,0,0.9,0.1,1.1,0.3
			c0.3,0.2,0.4,0.6,0.4,1c0,0.6-0.2,1.3-0.7,2c-0.5,0.6-1.2,1.3-2.3,2C422.2,102.1,420.9,102.9,419.4,103.6z M419.6,102.5
			c0.9-0.4,1.8-0.8,2.5-1.3c0.7-0.5,1.1-1,1.5-1.5c0.3-0.5,0.5-0.8,0.5-1.1c0-0.2-0.1-0.4-0.3-0.4c-0.2,0-0.5,0.1-0.9,0.4
			c-0.4,0.2-0.8,0.5-1.3,0.9s-0.8,0.8-1.1,1.3C419.9,101.3,419.7,101.9,419.6,102.5z"/>
		<path class="st10" d="M426.2,104.2v-1c0.6-0.7,1-1.2,1.3-1.8c-0.3-0.1-0.6-0.3-0.7-0.4c-0.1-0.2-0.2-0.4-0.2-0.7
			c0-0.4,0.2-0.8,0.5-1.4c0.3-0.6,0.7-1.1,1.1-1.7c0.5-0.5,0.9-0.8,1.2-1c0.1-0.1,0.3-0.1,0.4-0.1c0.2,0,0.3,0.1,0.3,0.3
			c0,0.2-0.2,0.5-0.5,1.1c2.2-0.3,3.6-0.5,4.1-0.5c0.2,0,0.4,0,0.4,0.1c0.2,0.1,0.3,0.3,0.4,0.6c0.1,0.3,0.2,0.7,0.2,1
			c0,0.2-0.1,0.5-0.3,0.7c-0.2,0.3-0.5,0.6-1,1.1c-0.5,0.6-1,1.2-1.4,2c-0.4,0.7-0.6,1.2-0.6,1.7c0,0.5,0.3,0.7,0.9,0.7
			c0.6,0,1.8-0.6,3.4-2v1c-0.9,0.9-1.7,1.7-2.2,2.2c-0.6,0.5-1.1,0.9-1.5,1.2c-0.5,0.3-0.9,0.5-1.3,0.5c-0.4,0-0.8-0.2-1.1-0.6
			c-0.3-0.4-0.4-1-0.4-1.8c0-0.4,0.1-0.9,0.3-1.5c0.2-0.6,0.6-1.2,1-1.9c0.4-0.7,0.9-1.3,1.5-2.1c-0.3,0.1-0.6,0.1-1,0.2
			c-0.4,0.1-0.7,0.1-1.1,0.2c-0.4,0.1-0.7,0.1-0.9,0.2C428.4,101.9,427.4,103.1,426.2,104.2z"/>
	</g>
	<g>
		
			<image style="overflow:visible;opacity:0.3;" width="133" height="127" xlink:href="A740E28E.png"  transform="matrix(1 0 0 1 -2 -3.5)">
		</image>
		<g>
			<g>
				<defs>
					<path id="SVGID_28_" d="M15.3,1.7C9.4,1.7,4.7,6.5,4.7,12.4v93.1c0,5.9,4.8,10.6,10.6,10.6H114c5.9,0,10.6-4.8,10.6-10.6V12.4
						c0-5.9-4.8-10.6-10.6-10.6H15.3z"/>
				</defs>
				<clipPath id="SVGID_29_">
					<use xlink:href="#SVGID_28_"  style="overflow:visible;"/>
				</clipPath>
			</g>
			<g>
				<defs>
					<path id="SVGID_30_" d="M15.3,1.7C9.4,1.7,4.7,6.5,4.7,12.4v93.1c0,5.9,4.8,10.6,10.6,10.6H114c5.9,0,10.6-4.8,10.6-10.6V12.4
						c0-5.9-4.8-10.6-10.6-10.6H15.3z"/>
				</defs>
				<clipPath id="SVGID_31_">
					<use xlink:href="#SVGID_30_"  style="overflow:visible;"/>
				</clipPath>
				
					<linearGradient id="SVGID_32_" gradientUnits="userSpaceOnUse" x1="-259.2079" y1="349.2905" x2="-258.7915" y2="349.2905" gradientTransform="matrix(0 -274.4863 -274.4863 0 95940.1094 -71032.9688)">
					<stop  offset="0" style="stop-color:#ECECEC"/>
					<stop  offset="8.097160e-03" style="stop-color:#ECECEC"/>
					<stop  offset="1" style="stop-color:#F9F9F9"/>
				</linearGradient>
				<rect x="4.7" y="1.7" class="st11" width="119.9" height="114.3"/>
			</g>
			<g>
				<defs>
					<path id="SVGID_33_" d="M15.3,1.7C9.4,1.7,4.7,6.5,4.7,12.4v93.1c0,5.9,4.8,10.6,10.6,10.6H114c5.9,0,10.6-4.8,10.6-10.6V12.4
						c0-5.9-4.8-10.6-10.6-10.6H15.3z"/>
				</defs>
				<clipPath id="SVGID_34_">
					<use xlink:href="#SVGID_33_"  style="overflow:visible;"/>
				</clipPath>
			</g>
		</g>
	</g>
	<g>
		<defs>
			<path id="SVGID_35_" d="M19.2,33.8c-1,0.2,0,4.2,0,4.2s49.1-6.2,61.4-4.2c4.4,0.7,10.1,6.9,0,17.6C76.2,56.1,64.9,63,59,65.5
				c-7.8,3.3-32.4,10.4-32.4,10.4L12.9,78v10.8c0,0,25.2-8.9,33.9-10.8c5.2-1.1,12.9-4.3,21.2-2.6c7.4,1.6,27.3,13.4,27.3,13.4
				l17.9,9.6l3.3-3.7L68.9,68.3c0,0,11.7-4.1,15.5-5.6c6-2.5,17.9-8.2,23.1-12.2c3.4-2.6,8.1-8.9,3.8-16.7
				c-2.2-3.9-10.4-4.5-10.4-4.5s-5.3-0.2-13.7-0.2C70.7,29.1,42.4,29.8,19.2,33.8"/>
		</defs>
		<clipPath id="SVGID_36_">
			<use xlink:href="#SVGID_35_"  style="overflow:visible;"/>
		</clipPath>
		
			<linearGradient id="SVGID_37_" gradientUnits="userSpaceOnUse" x1="-261.2199" y1="348.5623" x2="-260.7816" y2="348.5623" gradientTransform="matrix(236.1222 0 0 -236.1222 61692.707 82367.0547)">
			<stop  offset="0" style="stop-color:#EE4232"/>
			<stop  offset="0.133" style="stop-color:#EE4232"/>
			<stop  offset="1" style="stop-color:#F16522"/>
		</linearGradient>
		<rect x="12.9" y="29.1" class="st12" width="103.5" height="69.3"/>
	</g>
</g>
</svg>
